<svg width="468" height="800" viewBox="0 0 468 800" fill="none" xmlns="http://www.w3.org/2000/svg">
<path d="M324.736 483L324.123 482.146C276.441 414.113 122.582 322.1 -18.978 276.91L-19.658 276.696L-19.3556 276.058C26.5074 179.792 86.1845 117.385 136.369 113.199C158.09 111.379 177.016 121.007 191.143 140.987C256.961 162.111 307.57 207.148 333.91 268.042C347.867 300.509 354.403 335.682 353.043 370.996C351.815 408.57 342.46 445.925 325.21 482.153L324.736 483ZM101.285 323.486C200.876 370.707 289.777 431.738 324.524 480.573C341.468 444.837 350.589 407.898 351.799 370.861C353.135 335.722 346.628 300.727 332.751 268.418C306.558 207.904 256.076 163.018 190.542 142.138L190.364 142.054L190.251 141.873C176.144 121.811 158.1 112.583 136.482 114.379C86.8407 118.569 27.7105 180.435 -17.9406 275.948C22.7999 289.165 62.6277 305.045 101.285 323.486V323.486Z" fill="#9A5F90"/>
<path d="M302.984 218.583C278.992 184.349 201.412 137.989 130.103 115.189L130.475 114.021C202.02 136.86 279.854 183.45 303.99 217.879L302.984 218.583Z" fill="#9A5F90"/>
<path d="M351.038 340.702C309.897 282.093 177.072 202.579 54.8959 163.564L55.268 162.396C177.652 201.473 310.796 281.157 352.044 339.998L351.038 340.702Z" fill="#9A5F90"/>
<path d="M246.445 408.558L245.333 408.03C287.96 318.551 295.564 235.306 265.669 185.318C249.722 158.679 223.84 143.681 190.712 142.164L190.708 140.908C224.242 142.527 250.501 157.649 266.669 184.666C296.873 235.036 289.248 318.708 246.445 408.558Z" fill="#9A5F90"/>
<path d="M123.244 334.842L122.131 334.315C182.142 208.327 207.262 138.22 200.98 134.187C200.37 133.789 198.151 133.718 191.214 141.948L190.265 141.153C195.991 134.365 199.616 131.814 201.656 133.145C210.99 139.17 169.008 238.784 123.244 334.842Z" fill="#9A5F90"/>
<path d="M-189.083 318.936L-189.695 318.082C-204.613 296.782 -207.944 279.322 -199.333 267.598C-191.235 256.611 -173.072 251.105 -147.204 250.997C-86.6407 177.908 3.98081 132.39 94.6842 128.466C108.957 119.553 122.998 114.309 136.429 113.228C158.208 111.399 177.179 121.085 191.302 141.227L192.398 142.746L190.646 142.188C159.788 132.46 127.458 128.244 95.1366 129.734C56.1328 154.211 15.3419 206.368 -18.1244 276.642L-18.3565 277.132L-18.8311 276.907C-70.2834 260.469 -114.296 252.174 -146.423 252.148C-163.101 272.28 -177.242 294.383 -188.53 317.962L-189.083 318.936ZM-148.171 252.156C-173.075 252.376 -190.528 257.727 -198.341 268.341C-206.51 279.439 -203.372 296.08 -189.28 316.517C-178.188 293.503 -164.388 271.896 -148.171 252.156V252.156ZM92.6191 129.794C3.28586 134.278 -85.8065 179.176 -145.625 251.001C-113.517 251.144 -69.8871 259.403 -19.1827 275.541C13.8895 206.443 54.0235 154.828 92.6191 129.794ZM164.82 119.294C155.968 115.165 146.168 113.493 136.447 114.454C123.824 115.518 110.575 120.356 97.0861 128.496C128.22 127.25 159.34 131.274 189.133 140.398C182.907 131.424 174.526 124.157 164.76 119.266L164.82 119.294Z" fill="#9A5F90"/>
<path d="M43.839 135.845C36.2692 124.988 34.548 116.05 38.9827 110.031C48.259 97.4406 83.3109 98.9616 130.475 114.021L130.103 115.189C83.4423 100.332 48.9793 98.5271 39.9819 110.759C35.8902 116.323 37.5788 124.755 44.7927 135.098L43.839 135.845Z" fill="#9A5F90"/>
<path d="M-92.5216 199.086C-105.441 180.659 -108.311 165.562 -100.872 155.389C-85.1264 133.983 -25.332 136.698 55.2384 162.381L54.8663 163.55C-25.1357 138.008 -84.4053 135.106 -99.9172 156.096C-107.036 165.785 -104.169 180.39 -91.5679 198.339L-92.5216 199.086Z" fill="#9A5F90"/>
<path d="M-136.086 252.035L-137.199 251.507C-101.896 177.398 -42.8549 124.991 24.7548 107.736C82.11 93.1409 141.198 104.932 191.093 141.054L190.379 142.061C140.783 106.153 82.0986 94.3529 25.0659 108.919C-42.1791 126.057 -100.938 178.251 -136.086 252.035Z" fill="#9A5F90"/>
<path d="M-197.239 266.937L-198.352 266.409C-166.355 199.235 -109.55 148.785 -38.3585 124.398C36.7252 98.6217 118.199 104.584 191.049 141.07L190.521 142.183C117.846 105.634 36.7293 99.8774 -38.0052 125.492C-108.816 149.805 -165.362 200.015 -197.239 266.937Z" fill="#9A5F90"/>
<path d="M34.1553 476.024C-66.0289 428.521 -155.349 367.073 -189.695 318.082L-189.9 317.786L-189.745 317.459C-121.784 174.818 48.9852 95.641 190.915 140.97L191.108 141.062L191.229 141.228C239.054 209.456 222.701 380.928 154.782 523.481L154.55 523.97L154.076 523.745C113.093 510.5 73.0326 494.558 34.1553 476.024V476.024ZM-188.478 317.66C-140.704 385.5 12.7164 477.251 153.916 522.434C221.414 380.463 237.737 210.013 190.351 142.084C49.1259 97.1068 -120.698 175.823 -188.478 317.66Z" fill="#9A5F90"/>
<path d="M156.886 215.611C106.304 191.628 61.2378 160.611 43.8982 135.873L44.9113 135.154C68.9037 169.388 146.455 215.771 217.793 238.549L217.42 239.717C196.731 233.03 176.508 224.978 156.886 215.611V215.611Z" fill="#9A5F90"/>
<path d="M100.729 335.541C14.2214 294.523 -62.9034 241.456 -92.5864 199.146L-91.5733 198.427C-50.4607 257.095 82.385 336.564 204.569 375.565L204.189 376.748C168.833 365.305 134.271 351.539 100.729 335.541V335.541Z" fill="#9A5F90"/>
<path d="M-109.803 391.521L-110.916 390.994C-43.064 248.391 92.2978 136.219 190.708 140.908L190.653 142.136C92.6987 137.481 -42.1563 249.312 -109.803 391.521Z" fill="#9A5F90"/>
<path d="M13.3241 465.202L12.2116 464.674C80.0452 322.263 159.924 177.133 190.265 141.153L191.214 141.948C160.923 177.861 81.1225 322.865 13.3241 465.202Z" fill="#9A5F90"/>
<path d="M153.381 523.561L153.684 522.924C221.434 380.727 237.849 209.775 190.237 141.903L189.14 140.383L190.87 140.949C256.73 161.984 307.467 207.136 333.842 267.919C347.798 300.386 354.335 335.558 352.974 370.873C351.758 408.307 342.453 445.595 325.296 481.703C340.042 502.868 343.357 520.247 334.729 531.891C316.52 556.653 247.274 553.527 154.017 523.754L153.381 523.561ZM192.259 142.734C238.744 211.835 222.256 381.444 155.085 522.843C247.475 552.26 315.849 555.463 333.746 531.243C342.03 519.981 338.695 503.028 324.095 482.206L323.89 481.909L324.045 481.583C341.159 445.49 350.546 408.296 351.771 370.92C353.107 335.782 346.6 300.787 332.723 268.478C306.797 208.435 256.938 163.845 192.259 142.734Z" fill="#9A5F90"/>
<path d="M217.361 239.689L217.733 238.521C264.394 253.377 298.857 255.182 307.854 242.95C311.939 237.401 310.265 228.976 303.044 218.611L304.05 217.907C311.619 228.764 313.348 237.687 308.906 243.721C299.526 256.262 264.525 254.748 217.361 239.689Z" fill="#9A5F90"/>
<path d="M204.269 376.695L204.648 375.512C284.68 401.067 343.971 403.925 359.402 382.951C366.521 373.263 363.647 358.672 351.053 340.709L352.059 340.005C364.978 358.431 367.849 373.529 360.409 383.701C344.619 405.086 284.751 402.373 204.269 376.695Z" fill="#9A5F90"/>
<path d="M272.64 548.002L271.527 547.474C339.242 405.352 302.837 223.491 190.379 142.061L191.093 141.054C304.012 222.813 340.594 405.376 272.64 548.002Z" fill="#9A5F90"/>
<path d="M333.771 533.144L332.659 532.617C400.345 390.554 336.557 215.369 190.468 142.103L190.996 140.99C337.7 214.566 401.746 390.473 333.771 533.144Z" fill="#9A5F90"/>
<path d="M-55.6739 658.462L-55.7949 658.296C-103.606 590.075 -87.2674 418.596 -19.3556 276.058L-19.1235 275.569L-18.634 275.801C123.132 321.053 277.335 413.338 325.108 481.486L325.312 481.783L325.158 482.11C257.204 624.736 86.4345 703.913 -55.4952 658.584L-55.6739 658.462ZM-18.4752 277.075C-85.951 419.038 -102.289 589.482 -54.9028 657.411C86.3289 702.373 256.145 623.635 323.919 481.849C276.101 413.988 122.689 322.333 -18.4752 277.075Z" fill="#9A5F90"/>
<path d="M226.956 601.128C185.837 542.475 52.991 463.006 -69.1856 423.99L-68.8134 422.822C53.5849 461.906 186.714 541.583 227.977 600.431L226.956 601.128Z" fill="#9A5F90"/>
<path d="M90.5959 664.368C66.6036 630.135 -10.9473 583.752 -82.2853 560.974L-81.9131 559.806C-10.3682 582.645 67.4808 629.242 91.6019 663.664L90.5959 664.368Z" fill="#9A5F90"/>
<path d="M-55.3193 658.558L-55.2641 657.33C42.764 662.02 177.604 550.182 245.333 408.03L246.445 408.557C178.52 551.125 43.15 663.275 -55.3193 658.558Z" fill="#9A5F90"/>
<path d="M-54.8171 658.342L-55.7515 657.554C-25.4753 621.634 54.3253 476.63 122.132 334.315L123.244 334.842C55.3956 477.246 -24.4761 622.362 -54.8171 658.342Z" fill="#9A5F90"/>
<path d="M-86.8084 646.189C-137.435 622.185 -176.458 582.369 -198.41 531.496C-212.367 499.028 -218.903 463.856 -217.543 428.541C-216.333 391.121 -207.014 353.841 -189.872 317.726C-204.618 296.561 -207.932 279.182 -199.305 267.538C-181.081 242.783 -111.827 245.894 -18.5776 275.682L-17.9124 275.889L-18.2149 276.527C-85.9578 418.708 -102.344 589.637 -54.7606 657.533L-53.6641 659.052L-55.3943 658.486C-66.1293 655.095 -76.6244 650.987 -86.8084 646.189V646.189ZM-19.6369 276.652C-112.027 247.235 -180.401 244.032 -198.298 268.251C-206.582 279.514 -203.247 296.467 -188.647 317.289L-188.443 317.586L-188.597 317.912C-205.711 354.005 -215.098 391.198 -216.301 428.566C-217.652 463.699 -211.155 498.69 -197.283 530.995C-171.314 590.985 -121.5 635.554 -56.7749 656.723C-103.281 587.667 -86.8227 418.08 -19.6369 276.652Z" fill="#9A5F90"/>
<path d="M-55.645 658.44C-168.542 576.71 -205.146 394.119 -137.199 251.507L-136.086 252.035C-203.794 394.142 -167.389 576.003 -54.9168 657.441L-55.645 658.44Z" fill="#9A5F90"/>
<path d="M-55.5629 658.497C-202.253 584.928 -266.298 409.021 -198.33 266.365L-197.218 266.892C-264.905 408.955 -201.109 584.126 -55.0057 657.398L-55.5629 658.497Z" fill="#9A5F90"/>
<path d="M-29.7612 681.252C-40.2323 676.036 -49.1634 668.182 -55.6737 658.463C-66.3139 655.07 -76.7153 650.97 -86.8083 646.19C-137.434 622.185 -176.457 582.369 -198.41 531.496C-212.367 499.029 -218.903 463.856 -217.543 428.541C-216.315 390.967 -206.96 353.612 -189.717 317.4L-189.267 316.45L-188.669 317.297C-140.987 385.33 12.8874 477.35 154.447 522.54L155.112 522.747L154.81 523.385C108.947 619.651 49.2915 682.05 -0.893493 686.236C-10.7888 687.185 -20.7573 685.464 -29.7612 681.252V681.252ZM-54.9026 657.411L-54.7886 657.592C-40.6823 677.654 -22.6382 686.882 -1.02028 685.086C48.622 680.933 107.752 619.066 153.381 523.561C12.4028 478.41 -140.697 386.903 -189.083 318.936C-206.027 354.672 -215.141 391.596 -216.337 428.641C-217.688 463.773 -211.19 498.765 -197.318 531.069C-171.125 591.584 -120.629 636.477 -55.0947 657.357L-54.9026 657.411Z" fill="#9A5F90"/>
<path d="M-23.3171 595.893C-109.825 554.875 -186.95 501.808 -216.626 459.483L-215.62 458.779C-174.507 517.446 -41.6614 596.916 80.5371 635.924L80.1579 637.107C44.7969 625.661 10.2301 611.893 -23.3171 595.893V595.893Z" fill="#9A5F90"/>
<path d="M-55.5026 661.397C-106.084 637.413 -151.151 606.397 -168.483 581.644L-167.477 580.94C-143.485 615.174 -65.9341 661.556 5.38909 684.327L5.01693 685.495C-15.6676 678.811 -35.8852 670.761 -55.5026 661.397Z" fill="#9A5F90"/>
<path d="M-93.725 649.397C-109.433 641.897 -122.519 629.842 -131.281 614.801C-161.38 564.48 -153.807 480.802 -110.99 390.959L-109.803 391.522C-152.445 480.993 -160.034 564.246 -130.147 614.211C-114.2 640.851 -88.2828 655.774 -55.19 657.366L-55.2452 658.593C-68.5551 658.111 -81.6358 654.985 -93.725 649.397Z" fill="#9A5F90"/>
<path d="M-65.9634 666.484L-66.2007 666.372C-75.5497 660.34 -33.5529 560.733 12.2046 464.689L13.3171 465.217C-46.7081 591.198 -71.8067 661.297 -65.5467 665.337C-64.894 665.647 -62.7101 665.792 -55.7586 657.569L-54.8242 658.357C-60.3281 664.868 -63.8719 667.476 -65.9634 666.484Z" fill="#9A5F90"/>
<path d="M-29.7613 681.251C-39.5809 676.595 -48.3553 668.892 -55.7948 658.296L-56.8912 656.777L-55.1541 657.328C-24.2897 667.051 8.04435 671.269 40.3705 669.789C79.3594 645.304 120.15 593.148 153.624 522.895L153.842 522.435L154.332 522.667C205.769 539.098 249.797 547.401 281.909 547.419C298.587 527.288 312.728 505.184 324.016 481.605L324.467 480.656L325.079 481.509C340.069 502.735 343.355 520.173 334.774 531.912C326.69 542.906 308.528 548.412 282.666 548.505C222.169 621.57 131.482 667.111 40.7636 671.029C26.4905 679.942 12.4493 685.186 -0.906898 686.302C-10.8037 687.228 -20.7676 685.484 -29.7613 681.251V681.251ZM-53.7594 659.062C-39.8658 678.077 -22.119 686.783 -1.06489 685.064C11.5581 684 24.8221 679.169 38.2609 671.096C7.14448 672.294 -23.9505 668.232 -53.7149 659.083L-53.7594 659.062ZM154.52 523.919C121.507 593.046 81.3946 644.652 42.799 669.687C132.132 665.203 221.203 620.312 281.021 548.488C248.958 548.366 205.328 540.106 154.564 523.94L154.52 523.919ZM324.714 483.008C313.619 506.015 299.816 527.614 283.597 547.347C308.501 547.127 325.969 541.782 333.767 531.162C341.944 520.085 338.813 503.429 324.729 483.015L324.714 483.008Z" fill="#9A5F90"/>
<path d="M80.1874 637.121L80.5666 635.938C160.583 661.487 219.874 664.344 235.305 643.37C242.425 633.682 239.55 619.091 226.956 601.128L227.977 600.431C240.882 618.851 243.767 633.955 236.327 644.127C220.537 665.512 160.729 662.828 80.1874 637.121Z" fill="#9A5F90"/>
<path d="M4.97263 685.474L5.34479 684.306C52.0205 699.169 86.4687 700.967 95.4661 688.735C99.5507 683.186 97.8769 674.761 90.6552 664.396L91.6613 663.692C99.2311 674.549 100.959 683.472 96.5176 689.506C87.1967 702.076 52.137 700.533 4.97263 685.474Z" fill="#9A5F90"/>
<path d="M-21.4715 678.75C-33.4617 673.043 -44.9011 666.244 -55.6449 658.44L-54.9168 657.441C-5.32718 693.364 53.364 705.149 110.397 690.582C177.656 673.415 236.358 621.303 271.527 547.475L272.64 548.002C237.337 622.112 178.31 674.525 110.693 691.759C66.4816 703.145 19.6699 698.537 -21.4715 678.75V678.75Z" fill="#9A5F90"/>
<path d="M-49.2572 661.56C-51.3635 660.561 -53.4698 659.562 -55.591 658.557L-55.0635 657.444C17.5058 693.833 98.6326 699.722 173.41 674.055C244.206 649.735 300.753 599.525 332.601 532.662L333.714 533.19C301.717 600.364 244.919 650.799 173.802 675.222C100.941 700.217 21.9724 695.334 -49.2572 661.56Z" fill="#9A5F90"/>
<path d="M-59.8132 669.491C-65.8949 666.608 -70.974 663.909 -73.6322 662.503C-77.4341 660.482 -86.0402 655.566 -91.6968 651.939C-97.3534 648.312 -97.2643 648.354 -105.065 642.966C-106.533 641.961 -108.226 640.704 -109.875 639.468L-112.038 637.861C-121.866 630.426 -131.232 622.399 -140.084 613.824C-145.191 608.732 -151.084 602.54 -155.151 598.05C-158.564 594.251 -162.917 589.062 -165.95 585.152C-170.637 579.097 -176.376 571.124 -180.225 565.447C-184.074 559.77 -188.247 553.013 -190.888 548.2C-198.57 534.763 -205.213 520.758 -210.759 506.308C-213.384 499.431 -216.168 491.279 -217.867 485.513C-219.898 478.645 -222.546 468.559 -224.186 460.713C-227.466 445.077 -229.496 429.205 -230.258 413.246C-230.653 397.863 -230.172 382.47 -228.818 367.142C-227.981 358.608 -226.682 350.125 -224.927 341.732C-223.992 336.961 -222.546 331.269 -221.163 325.783C-220.531 323.303 -219.928 320.918 -219.393 318.718C-217.187 310.269 -214.437 301.972 -211.158 293.878L-210.67 292.657C-207.296 283.723 -203.446 274.977 -199.136 266.455C-198.21 264.769 -197.22 262.912 -196.203 260.996C-193.404 255.746 -190.217 249.789 -187.412 245.178C-182.949 237.618 -178.076 230.309 -172.815 223.282C-171.756 221.967 -170.584 220.415 -169.382 218.877C-165.75 214.167 -161.631 208.852 -158.124 204.828C-152.717 198.634 -145.511 190.986 -140.163 185.799C-134.815 180.613 -128.04 174.523 -122.95 170.34C-119.167 167.228 -109.525 159.462 -101.674 154.246C-89.5933 146.201 -73.2033 137.039 -62.8445 131.63C-57.3227 128.797 -49.9689 125.779 -43.5024 123.176C-41.3156 122.396 -39.3218 121.525 -37.3872 120.625C-30.6612 117.949 -23.7938 115.643 -16.8158 113.717C-7.63894 111.146 4.63258 108.37 13.0533 106.512C20.8749 104.887 28.7853 103.723 36.7435 103.028C46.9099 102.125 60.7087 101.454 71.0535 101.362C77.1691 101.3 86.255 101.757 95.3633 102.587C102.426 103.21 111.52 104.415 117.969 105.565C128.535 107.352 138.997 109.704 149.311 112.613C154.805 114.091 165.532 117.524 173.267 120.483C178.753 122.594 183.025 124.311 185.968 125.615C194.165 129.248 194.973 129.613 203.501 133.929C204.643 134.47 214.892 139.639 227.26 147.465C234.53 152.057 240.404 156.259 240.643 156.445C242.85 158.037 245.959 160.292 248.272 162.043C249.966 163.337 252.027 164.968 253.903 166.53L256.202 168.347C258.674 170.3 262.023 173.16 266.153 176.826C268.42 178.865 271.521 181.752 275.597 185.647C280.894 190.684 286.817 196.89 290.687 201.45C293.555 204.827 296.682 208.654 299.737 212.519C303.978 217.546 307.996 222.764 311.791 228.173L312.025 228.521C317.928 236.969 323.392 245.716 328.397 254.726C331.763 261.191 336.835 270.955 340.19 278.324C341.445 281.081 345.743 290.677 348.278 298.511L348.764 299.977C351.124 307.147 354.071 316.066 356.001 323.032C357.654 329.085 359.651 337.863 360.98 344.87C362.308 351.878 363.732 362.056 364.639 369.99C365.537 378.519 366.096 387.034 366.084 392.806C366.076 399.797 366.083 410.357 365.643 418.144C365.304 424.033 364.434 432.687 363.314 441.296C361.406 455.379 358.449 469.3 354.467 482.943C349.78 498.372 344.029 513.458 337.257 528.092C333.88 535.213 328.841 544.616 324.806 551.515C322.02 556.281 318.168 562.067 314.764 567.176C313.732 568.74 312.728 570.244 311.817 571.629C306.876 578.767 301.571 585.646 295.923 592.238C291.682 597.35 285.464 604.104 280.134 609.481C274.805 614.858 267.508 621.664 261.144 627.077C257.537 630.164 252.99 633.622 248.596 636.989C246.659 638.469 244.786 639.889 243.11 641.202C236.002 646.412 228.616 651.232 220.985 655.64C216.96 658.074 211.963 660.72 207.133 663.281C205.071 664.374 203.102 665.422 201.309 666.406C193.099 670.579 184.665 674.296 176.045 677.539C169.206 680.238 161.136 683.043 155.501 684.696C147.275 687.101 135.697 690.023 125.997 692.165C119.338 693.641 110.596 694.874 105.983 695.485C100.563 696.186 93.4385 696.805 87.7131 697.27L85.9756 697.409C74.5719 698.277 63.1213 698.342 51.7085 697.605C41.9864 696.919 34.6802 696.235 29.3715 695.553C22.715 694.686 13.7319 693.171 6.9836 691.77C-0.00911009 690.271 -8.14874 688.356 -13.6968 686.761L-14.4432 686.534C-17.2134 685.747 -20.6417 684.74 -23.2518 683.884C-27.969 682.337 -33.976 680.216 -37.676 678.861C-37.9726 678.721 -45.6895 675.952 -56.3726 671.086L-59.8132 669.491ZM194.542 131.098C192.02 129.902 189.78 128.84 185.312 126.921C182.385 125.624 178.127 123.914 172.671 121.818C164.98 118.88 154.29 115.446 148.825 113.982C138.557 111.101 128.145 108.76 117.631 106.968C111.232 105.75 102.154 104.626 95.1136 103.995C86.0498 103.186 77.0218 102.684 70.9435 102.782C60.6136 102.881 46.8734 103.543 36.7289 104.438C28.8348 105.101 20.9871 106.234 13.2277 107.831C4.80692 109.688 -7.42788 112.463 -16.5829 115.027C-23.5123 116.939 -30.3311 119.232 -37.0082 121.895L-43.1382 124.439C-49.5759 127.019 -56.8578 129.962 -62.364 132.839C-72.7009 138.24 -89.0683 147.431 -101.085 155.379C-108.893 160.58 -118.505 168.323 -122.259 171.413C-127.299 175.528 -134.01 181.558 -139.38 186.752C-144.749 191.946 -151.89 199.535 -157.269 205.706C-160.747 209.708 -164.866 215.023 -168.484 219.703C-169.671 221.248 -170.836 222.748 -171.917 224.107C-177.147 231.103 -181.996 238.375 -186.443 245.892C-189.197 250.436 -192.371 256.363 -195.162 261.599C-196.187 263.53 -197.176 265.386 -198.103 267.073C-202.389 275.55 -206.222 284.25 -209.588 293.133L-210.076 294.355C-213.323 302.403 -216.05 310.65 -218.241 319.047C-218.768 321.231 -219.379 323.631 -220.01 326.112C-221.409 331.59 -222.84 337.252 -223.762 341.994C-225.508 350.336 -226.801 358.767 -227.634 367.249C-228.664 380.496 -229.75 399.224 -229.069 413.192C-228.325 429.095 -226.298 444.913 -223.008 460.49C-221.444 468.227 -218.737 478.305 -216.715 485.151C-215.031 490.873 -212.255 499.003 -209.652 505.852C-204.112 520.241 -197.493 534.191 -189.85 547.583C-187.21 552.36 -183.052 559.11 -179.234 564.736C-175.416 570.362 -169.624 578.378 -164.945 584.412C-161.926 588.314 -157.611 593.467 -154.206 597.244C-150.177 601.698 -144.276 607.876 -139.184 612.961C-130.384 621.505 -121.072 629.506 -111.301 636.92L-109.123 638.534C-107.482 639.748 -105.789 641.005 -104.351 641.996C-96.6244 647.349 -96.6244 647.349 -91.0272 650.948C-85.4299 654.547 -76.8972 659.465 -73.0742 661.441C-69.9039 663.108 -63.3696 666.57 -55.8147 670.025C-45.176 674.869 -37.5247 677.661 -37.214 677.772C-33.5219 679.105 -27.5367 681.234 -22.8195 682.78C-20.2391 683.622 -16.8038 684.615 -14.0555 685.41L-13.3091 685.636C-7.79066 687.217 0.29118 689.178 7.29016 690.625C14.001 691.99 22.9552 693.528 29.582 694.381C34.8541 695.064 42.1454 695.741 51.8456 696.434C63.1976 697.158 74.5861 697.094 85.9293 696.242L87.6519 696.096C93.3328 695.61 100.48 695.02 105.878 694.327C109.568 693.823 118.912 692.548 125.768 691.039C135.446 688.905 146.995 685.968 155.192 683.586C160.804 681.941 168.831 679.152 175.626 676.469C184.186 673.236 192.557 669.526 200.7 665.354C202.486 664.384 204.476 663.329 206.532 662.251C211.376 659.697 216.284 657.009 220.325 654.618C227.869 650.213 235.174 645.41 242.209 640.229C243.885 638.917 245.764 637.482 247.701 636.002C252.096 632.635 256.607 629.214 260.185 626.15C266.577 620.677 273.997 613.803 279.118 608.636C284.239 603.469 290.642 596.439 294.827 591.446C300.446 584.894 305.725 578.058 310.643 570.964C311.554 569.579 312.565 568.059 313.59 566.511C316.986 561.416 320.824 555.623 323.596 550.887C327.617 544.017 332.591 534.638 336.004 527.553C342.757 512.944 348.484 497.883 353.143 482.479C357.133 468.915 360.101 455.072 362.024 441.066C363.123 432.502 364.015 423.84 364.333 417.995C364.774 410.245 364.774 399.707 364.762 392.76C364.76 387.054 364.223 378.569 363.312 370.069C362.486 362.192 361.021 352.14 359.691 345.059C358.361 337.978 356.374 329.332 354.721 323.315C352.829 316.386 349.89 307.488 347.538 300.341L347.052 298.875C344.504 291.144 340.23 281.613 338.99 278.863C335.635 271.531 330.578 261.774 327.22 255.33C322.225 246.361 316.781 237.648 310.909 229.227L310.69 228.923C307.351 224.469 303.115 218.881 298.711 213.341C271.009 180.455 234.026 156.033 190.749 142.163L190.63 142.107L191.002 140.939C224.974 151.548 256.124 169.665 282.144 193.948C279.712 191.414 277.132 188.846 274.749 186.553C270.673 182.658 267.588 179.778 265.328 177.762C261.213 174.102 257.886 171.271 255.429 169.325L253.13 167.508C251.241 166.013 249.172 164.36 247.514 163.028C245.223 161.27 242.144 159.028 239.93 157.452C239.648 157.318 233.846 153.077 226.606 148.5C214.29 140.716 204.079 135.583 202.944 135.027C198.947 133.187 196.693 132.118 194.542 131.098Z" fill="#9A5F90"/>
<path d="M324.736 483L324.123 482.146C276.441 414.113 122.582 322.1 -18.978 276.91L-19.658 276.696L-19.3556 276.058C26.5074 179.792 86.1845 117.385 136.369 113.199C158.09 111.379 177.016 121.007 191.143 140.987C256.961 162.111 307.57 207.148 333.91 268.042C347.867 300.509 354.403 335.682 353.043 370.996C351.815 408.57 342.46 445.925 325.21 482.153L324.736 483ZM101.285 323.486C200.876 370.707 289.777 431.738 324.523 480.573C341.468 444.837 350.589 407.898 351.799 370.861C353.135 335.722 346.628 300.727 332.751 268.418C306.558 207.904 256.076 163.018 190.542 142.138L190.364 142.054L190.251 141.873C176.144 121.811 158.1 112.583 136.482 114.379C86.8407 118.569 27.7105 180.435 -17.9406 275.948C22.7998 289.165 62.6277 305.045 101.285 323.486V323.486Z" fill="#9A5F90"/>
<path d="M302.984 218.583C278.992 184.349 201.412 137.989 130.103 115.189L130.475 114.021C202.02 136.86 279.854 183.45 303.99 217.879L302.984 218.583Z" fill="#9A5F90"/>
<path d="M351.038 340.702C309.897 282.093 177.072 202.579 54.8958 163.564L55.2679 162.396C177.651 201.473 310.795 281.157 352.044 339.998L351.038 340.702Z" fill="#9A5F90"/>
<path d="M246.445 408.558L245.333 408.03C287.959 318.551 295.564 235.306 265.669 185.318C249.722 158.679 223.84 143.681 190.712 142.164L190.708 140.908C224.242 142.527 250.501 157.649 266.669 184.666C296.873 235.036 289.248 318.708 246.445 408.558Z" fill="#9A5F90"/>
<path d="M123.244 334.842L122.131 334.315C182.142 208.327 207.262 138.22 200.98 134.187C200.37 133.789 198.151 133.718 191.214 141.948L190.265 141.153C195.99 134.365 199.616 131.814 201.656 133.145C210.99 139.17 169.008 238.784 123.244 334.842Z" fill="#9A5F90"/>
<path d="M-189.083 318.936L-189.695 318.082C-204.613 296.782 -207.944 279.322 -199.333 267.598C-191.235 256.611 -173.072 251.105 -147.204 250.997C-86.6408 177.908 3.98075 132.39 94.6842 128.466C108.957 119.553 122.998 114.309 136.429 113.228C158.208 111.399 177.179 121.085 191.302 141.227L192.398 142.746L190.646 142.188C159.788 132.46 127.458 128.244 95.1365 129.734C56.1328 154.211 15.3418 206.368 -18.1244 276.642L-18.3565 277.132L-18.8312 276.907C-70.2835 260.469 -114.296 252.174 -146.424 252.148C-163.101 272.28 -177.242 294.383 -188.53 317.962L-189.083 318.936ZM-148.171 252.156C-173.075 252.376 -190.529 257.727 -198.341 268.341C-206.51 279.439 -203.372 296.08 -189.28 316.517C-178.189 293.503 -164.388 271.896 -148.171 252.156V252.156ZM92.619 129.794C3.2858 134.278 -85.8066 179.176 -145.625 251.001C-113.517 251.144 -69.8871 259.403 -19.1828 275.541C13.8894 206.443 54.0234 154.828 92.619 129.794ZM164.82 119.294C155.968 115.165 146.168 113.493 136.447 114.454C123.824 115.518 110.575 120.356 97.0861 128.496C128.22 127.25 159.34 131.274 189.133 140.398C182.907 131.424 174.526 124.157 164.76 119.266L164.82 119.294Z" fill="#9A5F90"/>
<path d="M43.8389 135.845C36.2691 124.988 34.5479 116.05 38.9825 110.031C48.2589 97.4406 83.3108 98.9616 130.475 114.021L130.103 115.189C83.4422 100.332 48.9791 98.5271 39.9817 110.759C35.8901 116.323 37.5787 124.755 44.7926 135.098L43.8389 135.845Z" fill="#9A5F90"/>
<path d="M-92.5218 199.086C-105.441 180.659 -108.312 165.562 -100.872 155.389C-85.1265 133.983 -25.3321 136.698 55.2383 162.381L54.8661 163.55C-25.1359 138.008 -84.4055 135.106 -99.9173 156.096C-107.036 165.785 -104.169 180.39 -91.568 198.339L-92.5218 199.086Z" fill="#9A5F90"/>
<path d="M-136.087 252.035L-137.199 251.507C-101.896 177.398 -42.855 124.991 24.7547 107.736C82.1099 93.1409 141.198 104.932 191.093 141.054L190.379 142.061C140.783 106.153 82.0984 94.3529 25.0658 108.919C-42.1792 126.057 -100.938 178.251 -136.087 252.035Z" fill="#9A5F90"/>
<path d="M-197.239 266.937L-198.352 266.409C-166.355 199.235 -109.55 148.785 -38.3585 124.398C36.7252 98.6217 118.199 104.584 191.049 141.07L190.521 142.183C117.846 105.634 36.7293 99.8774 -38.0052 125.492C-108.816 149.805 -165.362 200.015 -197.239 266.937Z" fill="#9A5F90"/>
<path d="M34.1552 476.024C-66.029 428.521 -155.35 367.073 -189.695 318.082L-189.9 317.786L-189.745 317.459C-121.784 174.818 48.9851 95.641 190.915 140.97L191.108 141.062L191.228 141.228C239.054 209.456 222.701 380.928 154.782 523.481L154.55 523.97L154.075 523.745C113.093 510.5 73.0325 494.558 34.1552 476.024V476.024ZM-188.478 317.66C-140.705 385.5 12.7163 477.251 153.916 522.434C221.414 380.463 237.736 210.013 190.35 142.084C49.1258 97.1068 -120.698 175.823 -188.478 317.66Z" fill="#9A5F90"/>
<path d="M156.886 215.611C106.304 191.628 61.2376 160.611 43.8981 135.873L44.9112 135.154C68.9035 169.388 146.454 215.771 217.792 238.549L217.42 239.717C196.731 233.03 176.508 224.978 156.886 215.611V215.611Z" fill="#9A5F90"/>
<path d="M100.729 335.541C14.2213 294.523 -62.9035 241.456 -92.5865 199.146L-91.5734 198.427C-50.4609 257.095 82.3849 336.564 204.569 375.565L204.189 376.748C168.833 365.305 134.271 351.539 100.729 335.541V335.541Z" fill="#9A5F90"/>
<path d="M-109.803 391.522L-110.916 390.994C-43.064 248.392 92.2978 136.219 190.708 140.909L190.653 142.136C92.6987 137.481 -42.1563 249.313 -109.803 391.522Z" fill="#9A5F90"/>
<path d="M13.3241 465.202L12.2116 464.674C80.0452 322.263 159.924 177.133 190.265 141.153L191.214 141.948C160.923 177.861 81.1225 322.865 13.3241 465.202Z" fill="#9A5F90"/>
<path d="M153.381 523.561L153.684 522.924C221.434 380.727 237.849 209.775 190.236 141.903L189.14 140.383L190.87 140.949C256.73 161.984 307.467 207.136 333.842 267.919C347.798 300.386 354.334 335.558 352.974 370.873C351.758 408.307 342.453 445.595 325.296 481.703C340.042 502.868 343.357 520.247 334.729 531.891C316.52 556.653 247.274 553.527 154.017 523.754L153.381 523.561ZM192.258 142.734C238.744 211.835 222.256 381.444 155.085 522.843C247.475 552.26 315.849 555.463 333.746 531.243C342.029 519.981 338.694 503.028 324.095 482.206L323.89 481.909L324.045 481.583C341.159 445.49 350.546 408.296 351.771 370.92C353.107 335.782 346.6 300.787 332.722 268.478C306.797 208.435 256.938 163.845 192.258 142.734Z" fill="#9A5F90"/>
<path d="M217.361 239.689L217.733 238.521C264.394 253.377 298.857 255.182 307.854 242.95C311.939 237.401 310.265 228.976 303.043 218.611L304.049 217.907C311.619 228.764 313.347 237.687 308.906 243.721C299.526 256.262 264.525 254.748 217.361 239.689Z" fill="#9A5F90"/>
<path d="M204.269 376.695L204.648 375.512C284.68 401.067 343.971 403.925 359.402 382.951C366.521 373.263 363.647 358.672 351.053 340.709L352.059 340.005C364.978 358.431 367.849 373.529 360.409 383.701C344.619 405.086 284.751 402.373 204.269 376.695Z" fill="#9A5F90"/>
<path d="M272.64 548.002L271.527 547.474C339.242 405.352 302.837 223.491 190.379 142.061L191.093 141.054C304.012 222.813 340.594 405.376 272.64 548.002Z" fill="#9A5F90"/>
<path d="M333.771 533.145L332.659 532.617C400.345 390.554 336.557 215.369 190.468 142.103L190.996 140.991C337.7 214.567 401.746 390.474 333.771 533.145Z" fill="#9A5F90"/>
<path d="M-55.6739 658.462L-55.7949 658.296C-103.606 590.075 -87.2674 418.596 -19.3556 276.058L-19.1235 275.569L-18.634 275.801C123.132 321.053 277.335 413.338 325.108 481.486L325.312 481.783L325.158 482.11C257.204 624.736 86.4345 703.913 -55.4951 658.584L-55.6739 658.462ZM-18.4752 277.075C-85.951 419.038 -102.289 589.482 -54.9028 657.411C86.3289 702.373 256.145 623.635 323.919 481.849C276.101 413.988 122.689 322.333 -18.4752 277.075Z" fill="#9A5F90"/>
<path d="M226.956 601.128C185.837 542.475 52.9909 463.006 -69.1857 423.99L-68.8136 422.822C53.5848 461.906 186.714 541.583 227.977 600.431L226.956 601.128Z" fill="#9A5F90"/>
<path d="M90.5958 664.368C66.6034 630.135 -10.9474 583.752 -82.2854 560.974L-81.9132 559.806C-10.3683 582.645 67.4807 629.242 91.6018 663.664L90.5958 664.368Z" fill="#9A5F90"/>
<path d="M-55.3195 658.558L-55.2642 657.33C42.7639 662.02 177.604 550.182 245.333 408.03L246.445 408.557C178.519 551.125 43.1499 663.275 -55.3195 658.558Z" fill="#9A5F90"/>
<path d="M-54.8171 658.342L-55.7514 657.554C-25.4752 621.634 54.3253 476.63 122.132 334.315L123.244 334.842C55.3956 477.246 -24.476 622.362 -54.8171 658.342Z" fill="#9A5F90"/>
<path d="M-86.8085 646.189C-137.435 622.184 -176.458 582.368 -198.411 531.496C-212.367 499.028 -218.903 463.856 -217.543 428.541C-216.334 391.121 -207.014 353.841 -189.872 317.726C-204.618 296.561 -207.933 279.182 -199.305 267.538C-181.081 242.783 -111.827 245.894 -18.5777 275.682L-17.9125 275.889L-18.215 276.527C-85.9579 418.708 -102.344 589.637 -54.7607 657.533L-53.6642 659.052L-55.3944 658.486C-66.1295 655.095 -76.6245 650.987 -86.8085 646.189V646.189ZM-19.637 276.652C-112.027 247.235 -180.401 244.032 -198.299 268.251C-206.582 279.514 -203.247 296.467 -188.647 317.289L-188.443 317.586L-188.598 317.912C-205.711 354.005 -215.098 391.198 -216.302 428.566C-217.653 463.699 -211.155 498.69 -197.283 530.995C-171.314 590.985 -121.5 635.554 -56.775 656.723C-103.281 587.667 -86.8228 418.08 -19.637 276.652Z" fill="#9A5F90"/>
<path d="M-55.6451 658.44C-168.542 576.71 -205.146 394.119 -137.199 251.507L-136.087 252.035C-203.794 394.142 -167.389 576.003 -54.9169 657.441L-55.6451 658.44Z" fill="#9A5F90"/>
<path d="M-55.5631 658.497C-202.253 584.928 -266.299 409.021 -198.331 266.365L-197.218 266.892C-264.905 408.955 -201.109 584.126 -55.0059 657.399L-55.5631 658.497Z" fill="#9A5F90"/>
<path d="M-29.7612 681.251C-40.2323 676.036 -49.1634 668.182 -55.6738 658.463C-66.3139 655.07 -76.7153 650.97 -86.8084 646.189C-137.434 622.185 -176.458 582.369 -198.41 531.496C-212.367 499.029 -218.903 463.856 -217.543 428.541C-216.315 390.967 -206.96 353.612 -189.717 317.4L-189.267 316.45L-188.669 317.297C-140.987 385.33 12.8873 477.35 154.447 522.54L155.112 522.747L154.81 523.385C108.947 619.651 49.2914 682.05 -0.893546 686.236C-10.7888 687.185 -20.7573 685.464 -29.7612 681.251V681.251ZM-54.9027 657.411L-54.7887 657.592C-40.6823 677.654 -22.6383 686.882 -1.02033 685.086C48.6219 680.933 107.752 619.066 153.381 523.561C12.4028 478.41 -140.697 386.903 -189.083 318.936C-206.027 354.672 -215.141 391.596 -216.337 428.641C-217.688 463.773 -211.19 498.765 -197.318 531.069C-171.125 591.584 -120.629 636.477 -55.0947 657.357L-54.9027 657.411Z" fill="#9A5F90"/>
<path d="M-23.3172 595.893C-109.825 554.875 -186.95 501.808 -216.626 459.483L-215.62 458.779C-174.507 517.446 -41.6615 596.916 80.537 635.924L80.1578 637.107C44.7968 625.661 10.23 611.893 -23.3172 595.893V595.893Z" fill="#9A5F90"/>
<path d="M-55.5027 661.397C-106.084 637.413 -151.151 606.397 -168.483 581.644L-167.477 580.94C-143.485 615.173 -65.9342 661.556 5.38899 684.327L5.01683 685.495C-15.6677 678.811 -35.8853 670.761 -55.5027 661.397Z" fill="#9A5F90"/>
<path d="M-93.7252 649.396C-109.433 641.897 -122.519 629.842 -131.281 614.8C-161.381 564.48 -153.807 480.802 -110.99 390.959L-109.803 391.522C-152.445 480.993 -160.034 564.246 -130.148 614.211C-114.2 640.851 -88.2829 655.774 -55.1901 657.366L-55.2453 658.593C-68.5552 658.111 -81.6359 654.985 -93.7252 649.396Z" fill="#9A5F90"/>
<path d="M-65.9634 666.484L-66.2008 666.372C-75.5498 660.34 -33.5529 560.733 12.2045 464.689L13.317 465.217C-46.7082 591.198 -71.8067 661.297 -65.5467 665.337C-64.8941 665.647 -62.7101 665.792 -55.7587 657.569L-54.8243 658.357C-60.3281 664.868 -63.8719 667.476 -65.9634 666.484Z" fill="#9A5F90"/>
<path d="M-29.7613 681.251C-39.581 676.595 -48.3553 668.892 -55.7948 658.296L-56.8913 656.777L-55.1541 657.328C-24.2898 667.051 8.04431 671.269 40.3705 669.789C79.3594 645.304 120.15 593.148 153.624 522.895L153.842 522.435L154.332 522.667C205.769 539.098 249.797 547.401 281.909 547.419C298.587 527.288 312.728 505.184 324.016 481.605L324.466 480.656L325.079 481.509C340.069 502.735 343.355 520.173 334.773 531.912C326.69 542.906 308.528 548.412 282.666 548.505C222.169 621.57 131.482 667.111 40.7635 671.029C26.4905 679.942 12.4493 685.185 -0.906939 686.302C-10.8038 687.228 -20.7677 685.484 -29.7613 681.251V681.251ZM-53.7594 659.062C-39.8658 678.077 -22.1191 686.783 -1.06493 685.064C11.558 684 24.8221 679.169 38.2608 671.096C7.14444 672.294 -23.9506 668.232 -53.7149 659.083L-53.7594 659.062ZM154.52 523.919C121.507 593.046 81.3946 644.652 42.799 669.687C132.132 665.203 221.203 620.312 281.021 548.488C248.958 548.366 205.328 540.106 154.564 523.94L154.52 523.919ZM324.714 483.008C313.619 506.015 299.816 527.614 283.597 547.347C308.501 547.127 325.969 541.782 333.766 531.162C341.944 520.085 338.813 503.429 324.729 483.015L324.714 483.008Z" fill="#9A5F90"/>
<path d="M80.1872 637.121L80.5664 635.938C160.583 661.487 219.874 664.344 235.305 643.37C242.425 633.682 239.55 619.091 226.956 601.128L227.977 600.431C240.882 618.851 243.767 633.955 236.327 644.127C220.537 665.512 160.729 662.828 80.1872 637.121Z" fill="#9A5F90"/>
<path d="M4.97251 685.474L5.34467 684.306C52.0203 699.169 86.4685 700.967 95.466 688.735C99.5506 683.186 97.8768 674.761 90.6551 664.396L91.6612 663.692C99.231 674.549 100.959 683.472 96.5175 689.506C87.1966 702.076 52.1369 700.533 4.97251 685.474Z" fill="#9A5F90"/>
<path d="M-21.4716 678.75C-33.4618 673.043 -44.9012 666.244 -55.6451 658.44L-54.9169 657.441C-5.32728 693.364 53.3639 705.149 110.397 690.582C177.656 673.415 236.358 621.303 271.527 547.475L272.64 548.002C237.337 622.112 178.31 674.525 110.693 691.759C66.4815 703.145 19.6698 698.537 -21.4716 678.75V678.75Z" fill="#9A5F90"/>
<path d="M-49.2573 661.56C-51.3636 660.561 -53.47 659.562 -55.5911 658.557L-55.0636 657.444C17.5056 693.833 98.6325 699.722 173.41 674.055C244.206 649.735 300.752 599.525 332.601 532.662L333.713 533.19C301.717 600.364 244.919 650.799 173.802 675.222C100.941 700.217 21.9723 695.334 -49.2573 661.56Z" fill="#9A5F90"/>
<path d="M-60.1681 669.323L-62.1855 668.367C-65.829 666.548 -70.453 664.192 -73.6679 662.504C-80.6027 658.853 -88.0423 654.235 -91.606 652.018C-96.9105 648.722 -104.355 643.502 -104.84 643.145C-110.805 638.827 -115.062 635.736 -120.009 631.646C-122.938 629.24 -126.263 626.483 -128.709 624.323C-131.926 621.49 -135.563 618.239 -138.187 615.65L-139.589 614.24C-142.723 611.156 -146.593 607.286 -149.402 604.282C-154.351 599.01 -157.938 594.965 -160.396 591.91C-164.136 587.23 -171.18 578.33 -176.195 571.319C-180.553 565.183 -184.798 558.809 -187.218 554.409C-188.11 552.805 -189.131 551.049 -190.212 549.229C-192.711 544.882 -195.309 540.398 -197.225 536.546C-198.949 533.094 -204.899 521.042 -208.919 511.014C-211.034 505.742 -214.26 497.18 -216.362 490.387C-218.236 484.339 -221.655 472.888 -223.491 464.041C-227.025 448.182 -229.255 432.06 -230.159 415.837C-230.733 400.475 -230.392 385.092 -229.137 369.77C-228.33 361.11 -227.061 352.498 -225.335 343.973C-224.465 339.226 -223.07 333.564 -221.73 328.094C-221.107 325.592 -220.54 323.208 -219.999 320.957C-217.845 312.451 -215.15 304.091 -211.93 295.929C-208.703 287.593 -204.652 278.013 -201.593 271.523C-199.314 266.717 -196.124 260.834 -193.303 255.649C-192.213 253.658 -191.181 251.749 -190.241 249.996C-185.515 241.372 -180.163 233.106 -174.227 225.265L-171.239 221.377C-167.508 216.459 -163.269 210.892 -159.656 206.682C-154.509 200.655 -147.486 193.084 -142.183 187.839C-137.082 182.79 -130.237 176.515 -125.148 172.296C-121.561 169.291 -112.4 161.734 -104.833 156.582C-93.2782 148.688 -77.3082 139.453 -66.2277 133.442C-58.6122 129.548 -50.8059 126.039 -42.8383 122.928C-34.3563 119.485 -25.7002 116.487 -16.9055 113.947C-11.4365 112.452 7.60201 107.398 22.871 105.044C30.3224 103.89 41.419 102.519 50.2155 102.129L51.7413 102.053C56.6053 101.834 62.6727 101.568 67.3211 101.573C71.9695 101.579 80.9524 101.677 87.5723 102.2L90.0507 102.375C93.0295 102.607 96.4051 102.845 99.0778 103.185C104.857 103.909 114.538 105.065 121.521 106.431C134.062 108.734 146.448 111.815 158.606 115.657L158.42 116.242L158.606 115.657C165.895 117.987 173.745 120.819 179.612 123.237C184.796 125.369 186.729 126.158 191.838 128.489C196.946 130.82 202.073 133.342 203.432 134.114C206.936 135.921 210.247 137.636 215.011 140.349C219.774 143.062 222.229 144.553 227.109 147.594C231.306 150.238 231.872 150.615 240.247 156.403C241.863 157.515 243.758 158.922 245.436 160.172L247.293 161.543C251.686 164.77 259.746 171.336 264.191 175.296C270.251 180.677 277.826 187.921 283.072 193.334C287.463 197.869 292.515 203.498 295.943 207.686C300.54 213.318 306.918 221.593 311.757 228.285C313.605 230.978 315.423 233.657 317.182 236.308C319.191 239.313 321.125 242.284 322.679 244.946C327.912 253.987 333.796 264.953 337.662 272.891C343.431 284.712 349.307 301.67 353.237 313.382C356.219 322.439 358.557 331.696 360.233 341.083L361.047 345.956C362.243 352.937 363.576 360.855 364.324 367.17C365.257 374.739 365.808 382.35 365.975 389.974L365.998 393.22C366.043 400.291 366.08 409.102 365.75 415.814C365.42 422.526 364.571 431.789 363.619 438.969C362.667 446.149 360.829 456.616 359.127 464.421C357.316 472.647 354.275 483.197 353.049 487.394C348.775 501.323 343.472 514.915 337.183 528.058C329.936 542.444 321.854 556.394 312.977 569.836C308.229 577.058 302.995 583.949 297.311 590.462C295.847 592.093 294.226 593.941 292.562 595.841C288.861 600.046 285.03 604.407 281.658 607.841C275.8 613.989 269.611 619.814 263.12 625.289C261.531 626.57 259.799 628.002 257.994 629.472C253.807 632.937 249.098 636.737 245.215 639.602C238.821 644.274 230.355 649.981 224.156 653.782C217.957 657.584 210.234 661.917 204.559 664.804C201.384 666.405 190.271 671.947 181.285 675.572C172.706 678.99 165.76 681.493 160.845 683.123C152.617 685.763 142.724 688.54 135.68 690.215C130.178 691.513 122.026 693.225 115.635 694.174C107.232 695.459 96.0875 696.662 88.4723 697.357C76.2605 698.187 64.0108 698.306 51.7853 697.714C47.5641 697.42 36.8191 696.632 28.5276 695.535C22.0477 694.679 13.0786 693.133 6.19754 691.706C-0.683543 690.278 -8.76687 688.244 -14.3884 686.651C-25.1675 683.52 -29.0376 682.103 -37.5102 679.013C-39.4121 678.311 -46.384 675.695 -56.281 671.203L-60.1681 669.323ZM194.573 131.112L191.265 129.544C186.171 127.22 184.253 126.437 179.098 124.32C173.232 121.902 165.426 119.091 158.174 116.761C146.067 112.937 133.733 109.875 121.244 107.59C114.306 106.281 104.639 105.059 98.8946 104.261C96.2516 103.935 92.8979 103.689 89.9339 103.465L87.4555 103.289C80.8724 102.766 71.9925 102.68 67.2925 102.668C62.5926 102.656 56.6283 102.935 51.7713 103.14L50.2455 103.216C41.1343 103.722 32.0543 104.686 23.0401 106.106C7.82256 108.466 -11.1574 113.511 -16.5975 114.984C-25.3455 117.505 -33.9532 120.489 -42.3843 123.925C-50.3182 127.014 -58.0907 130.503 -65.6722 134.377C-76.7238 140.366 -92.6281 149.577 -104.154 157.449C-111.67 162.57 -120.81 170.083 -124.382 173.095C-129.463 177.336 -136.28 183.589 -141.388 188.653C-146.496 193.717 -153.656 201.423 -158.789 207.42C-162.373 211.608 -166.605 217.16 -170.321 222.048C-171.351 223.376 -172.351 224.719 -173.302 225.958C-179.211 233.737 -184.531 241.946 -189.217 250.518C-190.157 252.271 -191.189 254.18 -192.278 256.171C-195.093 261.341 -198.275 267.209 -200.533 271.971C-203.6 278.439 -207.623 287.996 -210.835 296.303C-214.034 304.413 -216.716 312.718 -218.864 321.168C-219.368 323.381 -219.971 325.803 -220.587 328.327C-221.935 333.775 -223.315 339.407 -224.193 344.133C-225.9 352.616 -227.143 361.185 -227.917 369.804C-229.171 385.071 -229.511 400.4 -228.935 415.708C-228.033 431.872 -225.812 447.935 -222.293 463.737C-220.465 472.525 -217.069 483.947 -215.196 489.959C-213.109 496.708 -209.87 505.203 -207.784 510.499C-203.794 520.476 -197.852 532.505 -196.238 535.96C-194.33 539.79 -191.755 544.245 -189.249 548.577L-186.262 553.772C-182.899 559.546 -179.248 565.146 -175.323 570.552C-170.316 577.541 -163.301 586.427 -159.613 591.064C-157.157 594.046 -153.606 598.128 -148.701 603.379C-145.848 606.404 -141.965 610.207 -138.882 613.322L-137.457 614.725C-134.863 617.299 -131.234 620.528 -128.032 623.354C-125.593 625.492 -122.283 628.243 -119.369 630.642C-114.445 634.703 -110.202 637.786 -104.327 642.062C-103.775 642.469 -96.3822 647.646 -91.1003 650.914C-87.5366 653.13 -80.1267 657.734 -73.2364 661.364C-70.0215 663.052 -65.4123 665.401 -61.7688 667.22C-59.885 668.113 -57.3188 669.33 -55.9838 669.963C-46.1165 674.441 -39.1812 677.057 -37.2872 677.737C-28.8365 680.836 -24.989 682.224 -14.2465 685.355C-8.65392 686.971 -0.615853 688.948 6.24336 690.383C13.1026 691.818 22.0419 693.35 28.4852 694.206C36.747 695.289 47.4553 696.079 51.6765 696.372C63.8382 696.969 76.0244 696.856 88.173 696.034C95.7734 695.332 106.881 694.13 115.262 692.853C121.587 691.891 129.702 690.179 135.197 688.896C142.227 687.251 152.083 684.474 160.334 681.864C165.28 680.284 172.13 677.754 180.687 674.344C189.638 670.793 200.684 665.274 203.905 663.694C209.515 660.904 217.389 656.406 223.407 652.718C229.425 649.031 238 643.285 244.386 638.591C248.255 635.756 253 631.919 257.107 628.506L262.248 624.33C268.702 618.876 274.859 613.079 280.692 606.966C284.036 603.554 287.844 599.2 291.539 595.011C293.203 593.111 294.824 591.263 296.295 589.616C301.928 583.163 307.12 576.337 311.833 569.184C320.675 555.779 328.731 541.872 335.961 527.533C342.225 514.451 347.505 500.921 351.756 487.054C352.969 482.887 356.024 472.307 357.807 464.177C359.503 456.386 361.295 446.207 362.287 438.828C363.278 431.449 364.096 422.406 364.413 415.761C364.729 409.116 364.692 400.304 364.648 393.233L364.639 389.995C364.453 382.436 363.889 374.892 362.948 367.39C362.208 361.097 360.883 353.201 359.695 346.242L358.866 341.361C357.209 332.037 354.89 322.843 351.925 313.85C348.003 302.16 342.128 285.275 336.412 273.498L334.979 270.62C361.289 332.916 359.242 406.205 328.264 475.37C327.293 477.417 326.404 479.485 325.426 481.547L325.187 482.051C257.233 624.677 86.4636 703.854 -55.466 658.525L-55.0939 657.357C86.2384 702.567 256.374 623.616 324.074 481.523L324.313 481.019C363.984 397.352 360.747 306.931 316.072 236.963L314.163 234.131C312.928 232.292 311.745 230.532 310.719 228.864C305.895 222.216 299.607 213.984 295.003 208.367C291.538 204.18 286.56 198.585 282.207 194.086C276.997 188.673 269.437 181.436 263.474 176.119C259.03 172.195 251.022 165.673 246.659 162.459L244.728 161.09C243.058 159.862 241.178 158.462 239.643 157.407C231.224 151.598 230.725 151.234 226.476 148.584C221.618 145.535 219.334 144.143 214.422 141.36C209.51 138.577 206.392 136.953 202.851 135.11C201.767 134.523 198.325 132.892 194.573 131.112Z" fill="#9A5F90"/>
<path d="M-56.3493 659.887L-56.4703 659.72C-104.524 591.13 -88.1616 418.681 -19.8326 275.378L-19.5864 274.859L-19.0969 275.091C123.453 320.606 278.496 413.38 326.541 481.912L326.746 482.209L326.591 482.535C258.278 625.918 86.5188 705.497 -56.1424 659.948L-56.3493 659.887ZM-18.8929 276.423C-86.7414 419.172 -103.162 590.558 -55.4907 658.804C86.5694 704.05 257.28 624.881 325.41 482.266C277.262 414.067 123.083 321.847 -18.8929 276.423Z" fill="#9A5F90"/>
<path d="M90.7808 665.855C66.6596 631.433 -11.3088 584.744 -83.045 561.886L-82.6728 560.718C-10.736 583.689 67.5369 630.541 91.7938 665.136L90.7808 665.855Z" fill="#9A5F90"/>
<path d="M227.846 602.24C186.499 543.261 52.9171 463.352 -69.9396 424.123L-69.5674 422.955C53.511 462.253 187.376 542.369 228.852 601.536L227.846 602.24Z" fill="#9A5F90"/>
<path d="M-55.9949 659.982L-55.9397 658.755C42.6249 663.463 178.209 551.014 246.31 408.076L247.423 408.603C179.124 551.957 43.0109 664.718 -55.9949 659.982Z" fill="#9A5F90"/>
<path d="M-55.4926 659.766L-56.4418 658.971C-25.9859 622.863 54.2459 477.065 122.432 333.949L123.545 334.476C55.3233 477.666 -24.9867 623.592 -55.4926 659.766Z" fill="#9A5F90"/>
<path d="M-87.669 647.544C-138.577 623.406 -177.803 583.366 -199.922 532.269C-213.955 499.602 -220.514 464.212 -219.119 428.684C-217.92 391.096 -208.533 353.557 -191.284 317.256C-206.114 295.961 -209.401 278.523 -200.789 266.798C-182.434 241.997 -112.878 245.16 -19.097 275.091L-18.4318 275.298L-18.7342 275.936C-86.8499 418.903 -103.334 590.767 -55.4784 659.046L-54.3819 660.565L-56.1121 659.999C-66.8969 656.556 -77.4394 652.394 -87.669 647.544V647.544ZM-20.1499 276.009C-113.086 246.479 -181.88 243.204 -199.825 267.601C-208.151 278.915 -204.792 295.971 -190.102 316.908L-189.898 317.205L-190.073 317.576C-207.352 353.826 -216.727 391.262 -217.956 428.836C-219.311 464.166 -212.769 499.353 -198.808 531.835C-172.7 592.145 -122.578 637.024 -57.5215 658.259C-104.243 588.737 -87.6727 418.186 -20.1351 276.016L-20.1499 276.009Z" fill="#9A5F90"/>
<path d="M-56.3204 659.864C-169.933 577.613 -206.673 394.158 -138.325 250.701L-137.212 251.228C-205.293 394.122 -168.691 576.985 -55.607 658.858L-56.3204 659.864Z" fill="#9A5F90"/>
<path d="M-56.2384 659.921C-203.796 585.923 -268.141 409.075 -199.793 265.617L-198.68 266.145C-266.733 408.979 -202.586 585.134 -55.689 658.801L-56.2384 659.921Z" fill="#9A5F90"/>
<path d="M-30.3016 682.812C-40.8279 677.563 -49.8052 669.662 -56.3492 659.887C-122.476 638.726 -173.465 593.454 -199.907 532.276C-213.94 499.609 -220.499 464.219 -219.104 428.691C-217.887 390.949 -208.464 353.336 -191.115 316.937L-190.665 315.988L-190.052 316.841C-142.158 385.193 12.6168 477.767 154.93 523.206L155.611 523.419L155.308 524.057C109.199 620.842 49.1985 683.587 -1.27152 687.837C-11.2238 688.793 -21.2498 687.057 -30.3016 682.812ZM-55.5781 658.835L-55.4641 659.017C-41.3859 679.137 -23.1412 688.479 -1.3546 686.672C48.5664 682.506 108.027 620.287 153.903 524.263C12.14 478.849 -141.793 386.838 -190.443 318.509C-207.479 354.438 -216.655 391.569 -217.875 428.82C-219.23 464.15 -212.689 499.337 -198.727 531.818C-172.387 592.675 -121.608 637.775 -55.7256 658.802L-55.5781 658.835Z" fill="#9A5F90"/>
<path d="M-56.1779 662.821C-107.026 638.711 -152.391 607.517 -169.836 582.62L-168.83 581.916C-144.709 616.337 -66.7406 663.027 5.00268 685.87L4.62344 687.053C-16.1547 680.322 -36.4659 672.227 -56.1779 662.821V662.821Z" fill="#9A5F90"/>
<path d="M-23.8239 596.961C-110.792 555.725 -188.341 502.366 -218.154 459.831L-217.148 459.127C-175.808 518.12 -42.2338 598.008 80.6377 637.244L80.2507 638.405C44.6834 626.9 9.91596 613.055 -23.8239 596.961V596.961Z" fill="#9A5F90"/>
<path d="M-94.6441 650.759C-110.436 643.218 -123.592 631.098 -132.402 615.977C-162.676 565.373 -155.047 481.231 -112.012 390.892L-110.9 391.419C-153.758 481.388 -161.397 565.09 -131.336 615.338C-115.319 642.137 -89.2245 657.108 -55.9693 658.74L-56.0245 659.968C-69.3808 659.488 -82.5083 656.357 -94.6441 650.759Z" fill="#9A5F90"/>
<path d="M-66.6966 667.954L-66.9487 667.834C-76.3423 661.781 -34.136 561.655 11.8959 465.033L13.0084 465.561C-47.3686 592.284 -72.5704 662.716 -66.2659 666.777C-65.6172 667.248 -63.3925 667.231 -56.4418 658.971L-55.4926 659.766C-61.0175 666.322 -64.6051 668.945 -66.6966 667.954Z" fill="#9A5F90"/>
<path d="M-30.3017 682.812C-40.1807 678.128 -48.9793 670.322 -56.4703 659.72L-57.5667 658.201L-55.8147 658.759C-24.786 668.544 7.72443 672.783 40.2252 671.283C79.439 646.669 120.452 594.236 154.109 523.597L154.341 523.108L154.816 523.333C206.556 539.853 250.857 548.23 283.123 548.231C299.876 527.979 314.079 505.746 325.413 482.031L325.863 481.082L326.476 481.935C341.484 503.351 344.824 520.906 336.17 532.683C328.037 543.744 309.786 549.244 283.757 549.385C222.923 622.891 131.741 668.633 40.5386 672.576C26.1858 681.542 12.0049 686.774 -1.37239 687.935C-11.3001 688.842 -21.2893 687.073 -30.3017 682.812V682.812ZM-54.3834 660.492C-40.414 679.616 -22.5845 688.415 -1.37732 686.642C11.312 685.591 24.6135 680.796 38.1671 672.596C6.85292 673.823 -24.4424 669.735 -54.3904 660.507L-54.3834 660.492ZM155.048 524.606C121.852 594.118 81.518 646.001 42.6982 671.202C132.523 666.678 222.109 621.542 282.183 549.293C249.951 549.182 206.085 540.884 155.041 524.621L155.048 524.606ZM326.14 483.448C314.99 506.589 301.11 528.311 284.796 548.152C309.854 547.95 327.417 542.56 335.257 531.887C343.463 520.751 340.301 504.008 326.133 483.463L326.14 483.448Z" fill="#9A5F90"/>
<path d="M4.62328 687.053L5.00253 685.87C51.9155 700.846 86.6339 702.573 95.6314 690.341C99.7371 684.747 98.0329 676.271 90.7214 665.827L91.7344 665.109C99.3932 676.008 101.071 684.998 96.6228 691.047C87.3487 703.747 52.0609 702.187 4.62328 687.053Z" fill="#9A5F90"/>
<path d="M80.2125 638.332L80.5995 637.171C161.075 662.864 220.674 665.722 236.191 644.644C243.353 634.904 240.499 620.232 227.808 602.168L228.814 601.464C241.824 620.006 244.681 635.17 237.176 645.402C221.39 666.97 161.243 664.271 80.2125 638.332Z" fill="#9A5F90"/>
<path d="M-21.9612 680.28C-34.0169 674.544 -45.5185 667.71 -56.3205 659.864L-55.6071 658.858C-5.74194 694.966 53.267 706.847 110.593 692.238C178.224 674.975 237.279 622.539 272.639 548.347L273.752 548.875C238.237 623.393 178.908 676.099 110.939 693.347C66.4831 704.802 19.4106 700.173 -21.9612 680.28Z" fill="#9A5F90"/>
<path d="M-49.903 662.998C-52.0242 661.992 -54.1454 660.986 -56.2665 659.98L-55.739 658.868C17.2901 695.475 98.8214 701.392 174 675.57C245.176 651.175 302.053 600.65 334.056 533.425L335.168 533.952C303.003 601.482 245.895 652.188 174.384 676.751C101.122 701.865 21.7271 696.961 -49.903 662.998Z" fill="#9A5F90"/>
<path d="M326.14 483.448L325.527 482.594C277.633 414.243 122.873 321.675 -19.4552 276.23L-20.1352 276.016L-19.8327 275.378C26.2835 178.578 86.284 115.834 136.762 111.605C158.592 109.782 177.622 119.46 191.832 139.534C257.937 160.703 308.948 205.967 335.389 267.144C349.416 299.813 355.975 335.202 354.586 370.729C353.369 408.472 343.953 446.07 326.612 482.491L326.14 483.448ZM101.467 323.063C201.622 370.552 290.97 431.904 325.943 481.029C342.986 445.084 352.146 407.947 353.36 370.711C354.717 335.376 348.178 300.185 334.219 267.698C307.879 206.841 257.122 161.77 191.232 140.721L191.039 140.63L190.918 140.463C176.847 120.328 158.595 111.001 136.816 112.794C86.9402 117.017 27.4795 179.236 -18.3584 275.296C22.5867 288.577 62.6149 304.533 101.467 323.063V323.063Z" fill="#9A5F90"/>
<path d="M352.603 340.39C311.233 281.383 177.659 201.495 54.8174 162.273L55.1966 161.09C178.275 200.388 312.126 280.497 353.616 339.671L352.603 340.39Z" fill="#9A5F90"/>
<path d="M304.249 217.639C280.128 183.217 202.175 136.534 130.417 113.684L130.789 112.516C202.726 135.487 281.006 182.325 305.255 216.935L304.249 217.639Z" fill="#9A5F90"/>
<path d="M247.423 408.604L246.31 408.076C289.169 318.108 296.815 234.391 266.753 184.143C250.737 157.343 224.657 142.379 191.38 140.755L191.442 139.513C225.189 141.142 251.553 156.35 267.82 183.504C298.087 234.122 290.443 318.294 247.423 408.604Z" fill="#9A5F90"/>
<path d="M123.545 334.476L122.432 333.948C182.84 207.313 208.018 136.779 201.727 132.688C201.109 132.267 198.876 132.226 191.903 140.494L190.954 139.699C196.709 132.888 200.364 130.352 202.403 131.645C211.783 137.728 169.555 237.898 123.545 334.476Z" fill="#9A5F90"/>
<path d="M-190.488 318.488L-191.1 317.634C-206.124 296.211 -209.464 278.656 -200.809 266.88C-192.661 255.826 -174.425 250.318 -148.396 250.177C-87.5557 176.657 3.62663 130.914 94.8438 126.979C109.197 118.013 123.377 112.781 136.755 111.62C158.644 109.789 177.719 119.524 191.917 139.774L193.014 141.293L191.277 140.742C160.231 130.941 127.7 126.692 95.1775 128.191C55.9637 152.805 15.025 205.273 -18.7061 275.876L-18.9382 276.366L-19.4129 276.141C-71.1532 259.621 -115.439 251.25 -147.706 251.25C-164.459 271.502 -178.662 293.735 -189.995 317.45L-190.488 318.488ZM-149.349 251.343C-174.392 251.551 -191.97 256.935 -199.81 267.608C-208.022 278.758 -204.861 295.502 -190.693 316.047C-179.543 292.906 -165.663 271.183 -149.349 251.343V251.343ZM92.7779 128.27C2.88946 132.891 -86.6621 177.953 -146.802 250.188C-114.511 250.328 -70.6453 258.626 -19.6005 274.889C13.6023 205.362 53.9433 153.464 92.7779 128.27ZM165.353 117.748C156.455 113.568 146.595 111.861 136.809 112.808C124.113 113.875 110.818 118.655 97.2997 126.78C128.603 125.606 159.879 129.729 189.808 138.974C182.637 129.166 174.485 122.091 165.353 117.748Z" fill="#9A5F90"/>
<path d="M-93.4467 198.047C-106.457 179.505 -109.314 164.341 -101.794 154.116C-85.9568 132.554 -25.8243 135.283 55.1685 161.149L54.7893 162.332C-25.6788 136.624 -85.2998 133.774 -100.817 154.852C-107.979 164.592 -105.118 179.249 -92.4266 197.314L-93.4467 198.047Z" fill="#9A5F90"/>
<path d="M43.7128 134.386C36.054 123.487 34.3758 114.496 38.8245 108.448C48.136 95.7832 83.3941 97.3292 130.81 112.471L130.438 113.639C83.5247 98.6631 48.8141 96.9587 39.8831 109.204C35.7625 114.791 37.4597 123.281 44.7712 133.725L43.7128 134.386Z" fill="#9A5F90"/>
<path d="M-137.212 251.228L-138.325 250.701C-102.818 176.161 -43.4744 123.462 24.5304 106.14C82.2207 91.413 141.619 103.315 191.768 139.63L191.054 140.637C141.189 104.529 82.1803 92.6476 24.8548 107.257C-42.8049 124.579 -101.867 177.03 -137.212 251.228Z" fill="#9A5F90"/>
<path d="M-198.723 266.234L-199.835 265.706C-167.655 198.183 -110.555 147.455 -39.029 122.899C36.4913 96.9304 118.384 102.928 191.665 139.618L191.137 140.731C118.159 104.129 36.5915 98.2134 -38.5867 124.036C-109.828 148.49 -166.641 198.918 -198.723 266.234Z" fill="#9A5F90"/>
<path d="M33.9518 476.49C-66.7813 428.727 -156.573 366.893 -191.056 317.655L-191.26 317.358L-191.126 317.076C-122.757 173.612 48.8841 93.9758 191.605 139.553L191.783 139.637L191.904 139.804C239.987 208.408 223.543 380.837 155.259 524.161L155.027 524.65L154.537 524.418C113.328 511.121 73.0453 495.11 33.9518 476.49V476.49ZM-189.883 317.212C-141.8 385.435 12.4021 477.683 154.393 523.114C222.256 380.372 238.684 208.972 190.99 140.733C49.0248 95.4416 -121.745 174.582 -189.883 317.212Z" fill="#9A5F90"/>
<path d="M100.94 335.096C13.9723 293.86 -63.5842 240.515 -93.4116 197.973L-92.3985 197.254C-51.1244 256.271 82.5231 336.157 205.387 375.371L205.008 376.554C169.442 365.044 134.677 351.195 100.94 335.096V335.096Z" fill="#9A5F90"/>
<path d="M157.371 214.587C106.523 190.477 61.1655 159.268 43.7128 134.386L44.7189 133.682C68.8618 168.096 146.808 214.794 218.566 237.644L218.194 238.812C197.407 232.091 177.088 223.998 157.371 214.587V214.587Z" fill="#9A5F90"/>
<path d="M-110.884 391.463L-111.997 390.936C-43.698 247.582 92.4223 134.806 191.428 139.542L191.366 140.784C92.8224 136.032 -42.7614 248.481 -110.884 391.463Z" fill="#9A5F90"/>
<path d="M13.0083 465.561L11.8958 465.033C80.117 321.843 160.442 175.925 190.933 139.743L191.882 140.539C161.433 176.631 81.1944 322.445 13.0083 465.561Z" fill="#9A5F90"/>
<path d="M153.851 524.257L154.153 523.619C222.276 380.636 238.76 208.772 190.897 140.508L189.801 138.989L191.553 139.547C257.82 160.72 308.803 206.043 335.303 267.212C349.33 299.882 355.888 335.27 354.5 370.797C353.301 408.385 343.914 445.925 326.68 482.233C341.517 503.512 344.796 520.966 336.17 532.683C317.839 557.587 248.218 554.447 154.443 524.501L153.851 524.257ZM192.962 141.251C239.732 210.669 223.127 381.294 155.589 523.464C248.525 552.994 317.32 556.269 335.264 531.872C343.591 520.558 340.232 503.503 325.541 482.565L325.352 482.275L325.507 481.949C342.711 445.663 352.146 408.255 353.374 370.681C354.731 335.347 348.192 300.155 334.233 267.668C308.155 207.408 257.99 162.545 192.962 141.251Z" fill="#9A5F90"/>
<path d="M205.008 376.554L205.387 375.371C285.855 401.079 345.476 403.929 360.993 382.852C368.148 373.126 365.294 358.454 352.603 340.39L353.616 339.671C366.626 358.213 369.483 373.377 361.964 383.602C346.154 405.105 286 402.42 205.008 376.554Z" fill="#9A5F90"/>
<path d="M218.194 238.812L218.566 237.644C265.465 252.613 300.19 254.324 309.128 242.064C313.234 236.47 311.545 228.002 304.218 217.551L305.224 216.847C312.883 227.746 314.576 236.743 310.112 242.785C300.853 255.493 265.61 253.954 218.194 238.812Z" fill="#9A5F90"/>
<path d="M273.78 548.816L272.667 548.288C340.748 405.395 304.138 222.51 191.054 140.637L191.768 139.63C305.335 221.787 342.107 405.403 273.78 548.816Z" fill="#9A5F90"/>
<path d="M335.212 533.937L334.1 533.41C402.159 390.561 338.013 214.406 191.115 140.739L191.643 139.626C339.184 213.544 403.581 390.435 335.212 533.937Z" fill="#9A5F90"/>
<path d="M-60.7686 670.855C-73.9469 664.602 -86.651 657.394 -98.7795 649.289C-109.533 642.119 -117.576 635.671 -121.011 632.915C-130.533 625.294 -139.219 616.905 -139.287 616.819C-147.189 609.279 -154.665 601.305 -161.683 592.936C-166.68 587.114 -173.126 578.752 -177.602 572.215C-181.402 566.779 -185.646 560.442 -188.549 555.414C-193.813 546.322 -199.726 535.305 -203.608 527.323C-209.422 515.482 -215.322 498.385 -219.277 486.607C-222.277 477.498 -224.625 468.188 -226.305 458.746L-227.133 453.901C-228.323 446.869 -229.664 438.892 -230.421 432.519C-231.392 424.337 -231.913 413.787 -232.103 409.628C-232.45 401.432 -232.261 390.802 -231.867 383.611C-231.629 378.855 -231.014 373.114 -230.453 367.639C-230.183 365.077 -229.889 362.618 -229.723 360.353C-228.806 351.715 -227.289 343.152 -225.184 334.724C-221.322 319.148 -216.587 303.801 -211.001 288.757C-206.448 277.125 -198.987 260.585 -191.679 249.042C-190.435 247.07 -189.079 244.823 -187.738 242.607C-184.521 237.318 -180.894 231.316 -177.506 226.89C-176.133 225.106 -174.64 223.107 -173.097 221.041C-169.697 216.475 -166.19 211.761 -163.051 208.016C-157.604 201.316 -151.798 194.917 -145.658 188.845C-144.124 187.41 -142.41 185.824 -140.719 184.137C-136.623 180.21 -132.375 176.156 -128.667 172.972C-122.542 167.718 -114.4 161.276 -108.373 156.993C-102.345 152.71 -94.8998 147.737 -89.4114 144.362C-81.9819 139.728 -74.3206 135.477 -66.4575 131.625C-53.2294 125.309 -39.6643 119.725 -25.8234 114.897C-18.7409 112.605 -8.78308 109.804 -0.483315 107.78C5.85085 106.223 13.9318 104.621 19.5973 103.747C27.4368 102.54 38.477 101.288 46.8989 100.539C52.1253 100.092 59.1539 99.7903 64.4184 99.761C70.0952 99.7817 76.5732 99.8371 81.4824 100.021C85.2749 100.184 90.3058 100.57 94.2045 100.893L95.5506 101.004C104.443 101.714 115.43 103.526 118.585 104.076C123.471 104.922 127.091 105.602 129.651 106.18C135.044 107.411 143.701 109.463 150.333 111.263C154.778 112.462 165.267 115.745 173.691 118.977C192.645 126.129 210.824 135.187 227.949 146.012C239.952 153.611 248.476 160.196 248.469 160.211C253.941 164.495 260.253 169.614 264.53 173.277C268.044 176.288 272.418 180.397 274.666 182.553C278.142 185.873 282.711 190.492 286.015 194.021C289.756 198.011 294.541 203.514 297.027 206.51C300.255 210.276 303.901 215.002 307.232 219.471C309.173 222.008 311.07 224.597 312.901 227.21L313.478 228.101C320.247 238.579 328.718 251.48 334.015 262.15C338.17 270.516 342.786 280.59 345.786 287.827C348.408 294.176 351.416 302.507 353.269 308.6C355.918 317.306 358.749 327.696 360.43 335.071C361.803 341.064 363.411 349.821 364.516 357.376C365.62 364.932 366.601 374.972 367.132 383.546C367.49 389.457 367.499 396.911 367.511 403.476L367.511 406.619C367.543 414.484 366.617 425.056 365.819 432.526C365.361 437.324 364.46 443.056 363.487 448.555C363.078 451.105 362.653 453.61 362.346 455.79C360.976 464.408 358.967 472.911 356.334 481.23C355.636 483.352 354.907 485.695 354.15 488.135C352.401 493.701 350.604 499.445 348.844 504.115C346.011 511.621 341.841 521.49 338.458 528.662C331.272 543.188 323.136 557.224 314.103 570.679C308.703 578.806 302.752 586.553 296.294 593.868C295.074 595.215 293.739 596.69 292.406 598.238C288.531 602.579 284.117 607.481 280.419 611.179C274.46 617.289 268.176 623.074 261.593 628.507L257.718 631.812C253.118 635.5 247.903 639.677 243.605 642.763C237.122 647.393 228.546 653.029 222.279 656.781C208.445 665.072 193.965 672.237 178.982 678.205C176.149 679.315 166.292 683.09 158.398 685.561C150.036 688.137 140.054 690.836 132.957 692.431C127.416 693.656 119.241 695.303 112.915 696.192C104.407 697.39 93.1435 698.5 85.4534 699.124C72.9123 699.846 60.3391 699.812 47.8022 699.023C41.3588 698.512 31.9186 697.615 24.8406 696.603C18.4474 695.679 9.60172 694.065 2.83701 692.584C-19.1186 687.77 -40.4569 680.481 -60.7686 670.855ZM-176.581 571.517C-172.083 578.047 -165.727 586.33 -160.738 592.13C-153.746 600.472 -146.302 608.424 -138.439 615.949C-138.335 615.998 -129.715 624.373 -120.261 631.945C-116.825 634.701 -108.805 641.12 -98.0958 648.269C-67.3328 668.855 -32.9799 683.486 3.17952 691.401C9.90753 692.884 18.7016 694.491 25.0652 695.401C32.1284 696.406 41.5248 697.318 47.9682 697.83C60.4129 698.594 72.892 698.62 85.3399 697.907C93.037 697.269 104.316 696.203 112.743 694.984C119.032 694.096 127.171 692.449 132.697 691.217C139.765 689.645 149.725 686.954 158.065 684.386C163.34 682.762 171.031 680.031 178.54 677.069C193.464 671.12 207.887 663.984 221.67 655.729C227.921 651.97 236.44 646.38 242.849 641.714C247.133 638.658 252.326 634.488 256.904 630.809L260.942 627.581C267.483 622.166 273.731 616.407 279.66 610.328C283.357 606.63 287.735 601.765 291.596 597.455C292.974 595.928 294.294 594.446 295.492 593.07C301.905 585.804 307.816 578.111 313.186 570.044C322.186 556.64 330.291 542.656 337.449 528.184C340.847 521.019 344.996 511.194 347.815 503.718C349.554 499.092 351.351 493.348 353.086 487.812C353.85 485.358 354.558 483.059 355.284 480.877C357.885 472.63 359.872 464.201 361.227 455.66C361.562 453.42 361.966 450.959 362.376 448.409C363.281 442.897 364.205 437.194 364.708 432.454C365.478 425.006 366.412 414.493 366.389 406.687L366.381 403.522C366.377 396.979 366.354 389.555 366.004 383.665C365.48 375.113 364.459 364.89 363.389 357.606C362.32 350.321 360.716 341.366 359.373 335.424C357.684 328.064 354.876 317.702 352.235 309.018C350.391 302.983 347.405 294.682 344.799 288.376C341.792 281.154 337.198 271.109 333.045 262.817C327.778 252.161 319.357 239.229 312.531 228.833L311.977 227.971C310.329 225.7 308.394 223.038 306.339 220.283C277.94 183.197 238.413 155.861 191.418 140.791L191.329 140.749L191.136 140.657L191.508 139.489C225.437 150.066 256.573 168.095 282.637 192.256C279.785 189.305 276.568 186.089 274.013 183.624C271.727 181.432 267.376 177.352 263.869 174.363C259.6 170.722 253.276 165.706 247.868 161.325C247.779 161.283 239.441 154.804 227.415 147.176C210.323 136.383 192.176 127.358 173.255 120.241C164.86 117.024 154.423 113.747 150.022 112.569C143.405 110.776 134.771 108.717 129.392 107.493C126.832 106.915 123.249 106.233 118.377 105.395C115.238 104.852 104.288 103.039 95.461 102.343L94.1 102.224C90.1428 101.91 85.2072 101.514 81.4295 101.358C76.5422 101.167 70.0939 101.126 64.4171 101.105C59.2104 101.089 52.2255 101.375 47.0287 101.836C38.6288 102.577 27.6845 103.856 19.7927 105.02C14.0843 105.948 6.07522 107.474 -0.259712 108.994C-8.50015 111.047 -18.4369 113.803 -25.4382 116.116C-39.2624 120.917 -52.8133 126.471 -66.0301 132.754C-73.8547 136.595 -81.4818 140.825 -88.8824 145.43C-94.3068 148.709 -101.926 153.781 -107.749 158.016C-113.572 162.25 -121.801 168.723 -127.891 173.903C-131.563 177.049 -135.775 181.066 -139.886 185.022C-141.621 186.689 -143.261 188.31 -144.832 189.745C-150.94 195.775 -156.711 202.137 -162.117 208.804C-165.241 212.519 -168.741 217.219 -172.135 221.77C-173.678 223.836 -175.15 225.791 -176.536 227.641C-179.881 232.015 -183.509 237.98 -186.696 243.246C-188.081 245.515 -189.416 247.717 -190.659 249.689C-197.918 261.165 -205.336 277.615 -209.868 289.203C-215.429 304.18 -220.143 319.457 -223.989 334.963C-226.067 343.335 -227.568 351.838 -228.481 360.415C-228.684 362.645 -228.911 365.153 -229.225 367.694C-229.801 373.199 -230.387 378.88 -230.619 383.622C-230.94 390.737 -231.211 401.347 -230.842 409.498C-230.668 413.651 -230.147 424.164 -229.177 432.31C-228.443 438.654 -227.094 446.616 -225.898 453.633L-225.077 458.492C-223.408 467.865 -221.075 477.107 -218.096 486.149C-214.165 497.898 -208.252 514.892 -202.49 526.727C-198.623 534.666 -192.725 545.675 -187.476 554.723C-184.582 559.729 -180.332 565.978 -176.568 571.451L-176.581 571.517Z" fill="#9A5F90"/>
<path d="M-56.3492 659.887L-56.4702 659.721C-104.524 591.13 -88.1615 418.681 -19.8325 275.379L-19.5863 274.859L-19.0968 275.092C123.454 320.606 278.497 413.38 326.541 481.912L326.746 482.209L326.591 482.536C258.278 625.919 86.5189 705.498 -56.1423 659.949L-56.3492 659.887ZM-18.8927 276.424C-86.7413 419.173 -103.162 590.558 -55.4906 658.804C86.5695 704.05 257.28 624.882 325.411 482.266C277.263 414.067 123.083 321.848 -18.8927 276.424Z" fill="#9A5F90"/>
<path d="M90.7808 665.856C66.6597 631.434 -11.3087 584.744 -83.0449 561.886L-82.6728 560.718C-10.7359 583.689 67.537 630.542 91.7939 665.137L90.7808 665.856Z" fill="#9A5F90"/>
<path d="M227.846 602.24C186.499 543.262 52.9172 463.353 -69.9395 424.123L-69.5673 422.955C53.5111 462.253 187.376 542.37 228.852 601.536L227.846 602.24Z" fill="#9A5F90"/>
<path d="M-55.9947 659.982L-55.9395 658.755C42.6251 663.463 178.209 551.014 246.31 408.076L247.423 408.603C179.124 551.957 43.0111 664.718 -55.9947 659.982Z" fill="#9A5F90"/>
<path d="M-55.4924 659.767L-56.4416 658.971C-25.9857 622.864 54.2461 477.065 122.432 333.949L123.545 334.477C55.3234 477.667 -24.9865 623.592 -55.4924 659.767Z" fill="#9A5F90"/>
<path d="M-87.6688 647.544C-138.577 623.406 -177.803 583.367 -199.922 532.27C-213.955 499.603 -220.514 464.212 -219.119 428.685C-217.92 391.097 -208.533 353.558 -191.284 317.257C-206.114 295.962 -209.4 278.523 -200.789 266.799C-182.434 241.997 -112.878 245.161 -19.0967 275.092L-18.4315 275.298L-18.734 275.936C-86.8497 418.904 -103.334 590.768 -55.4781 659.047L-54.3817 660.566L-56.1118 660C-66.8967 656.556 -77.4392 652.395 -87.6688 647.544V647.544ZM-20.1497 276.01C-113.086 246.479 -181.88 243.204 -199.825 267.601C-208.151 278.916 -204.792 295.971 -190.102 316.909L-189.897 317.206L-190.073 317.577C-207.352 353.827 -216.727 391.263 -217.955 428.837C-219.311 464.167 -212.769 499.354 -198.807 531.835C-172.7 592.146 -122.578 637.024 -57.5213 658.26C-104.243 588.738 -87.6724 418.187 -20.1348 276.017L-20.1497 276.01Z" fill="#9A5F90"/>
<path d="M-56.3203 659.865C-169.933 577.614 -206.673 394.159 -138.325 250.701L-137.212 251.229C-205.293 394.122 -168.691 576.985 -55.607 658.858L-56.3203 659.865Z" fill="#9A5F90"/>
<path d="M-56.2383 659.921C-203.796 585.923 -268.141 409.075 -199.793 265.617L-198.68 266.145C-266.733 408.979 -202.586 585.134 -55.6888 658.801L-56.2383 659.921Z" fill="#9A5F90"/>
<path d="M-30.3016 682.812C-40.8279 677.563 -49.8051 669.662 -56.3491 659.887C-122.476 638.726 -173.465 593.454 -199.907 532.276C-213.94 499.609 -220.499 464.219 -219.104 428.691C-217.887 390.949 -208.464 353.336 -191.115 316.937L-190.664 315.988L-190.052 316.841C-142.158 385.193 12.6168 477.767 154.931 523.206L155.611 523.419L155.308 524.057C109.199 620.842 49.1985 683.587 -1.27146 687.837C-11.2237 688.793 -21.2497 687.057 -30.3016 682.812ZM-55.578 658.835L-55.4641 659.017C-41.3858 679.137 -23.1411 688.479 -1.35454 686.672C48.5665 682.506 108.027 620.287 153.903 524.263C12.1401 478.849 -141.793 386.838 -190.443 318.509C-207.479 354.438 -216.655 391.569 -217.875 428.82C-219.23 464.15 -212.689 499.337 -198.727 531.818C-172.387 592.675 -121.608 637.775 -55.7256 658.802L-55.578 658.835Z" fill="#9A5F90"/>
<path d="M-56.1779 662.821C-107.026 638.711 -152.391 607.517 -169.836 582.62L-168.83 581.916C-144.709 616.337 -66.7406 663.027 5.00267 685.87L4.62343 687.053C-16.1547 680.322 -36.4659 672.227 -56.1779 662.821V662.821Z" fill="#9A5F90"/>
<path d="M-23.8237 596.961C-110.791 555.725 -188.341 502.366 -218.153 459.831L-217.147 459.127C-175.808 518.12 -42.2336 598.008 80.6379 637.244L80.2509 638.405C44.6836 626.9 9.91616 613.055 -23.8237 596.961V596.961Z" fill="#9A5F90"/>
<path d="M-94.644 650.76C-110.436 643.218 -123.592 631.098 -132.402 615.977C-162.676 565.374 -155.047 481.232 -112.012 390.892L-110.9 391.42C-153.758 481.388 -161.397 565.09 -131.336 615.338C-115.319 642.138 -89.2244 657.109 -55.9693 658.741L-56.0244 659.968C-69.3807 659.488 -82.5082 656.358 -94.644 650.76Z" fill="#9A5F90"/>
<path d="M-66.6964 667.954L-66.9486 667.835C-76.3421 661.782 -34.1358 561.656 11.896 465.034L13.0085 465.561C-47.3684 592.284 -72.5702 662.716 -66.2657 666.777C-65.617 667.249 -63.3923 667.231 -56.4416 658.971L-55.4924 659.766C-61.0173 666.322 -64.6049 668.946 -66.6964 667.954Z" fill="#9A5F90"/>
<path d="M-30.3017 682.813C-40.1807 678.128 -48.9792 670.323 -56.4702 659.721L-57.5667 658.202L-55.8147 658.76C-24.786 668.544 7.72449 672.784 40.2253 671.283C79.4391 646.669 120.452 594.236 154.109 523.598L154.341 523.108L154.816 523.333C206.556 539.853 250.857 548.231 283.123 548.231C299.876 527.979 314.079 505.746 325.413 482.032L325.863 481.082L326.476 481.936C341.484 503.352 344.824 520.907 336.17 532.684C328.037 543.744 309.786 549.245 283.757 549.386C222.923 622.891 131.741 668.634 40.5386 672.577C26.1859 681.542 12.005 686.774 -1.37233 687.935C-11.3 688.842 -21.2892 687.073 -30.3017 682.813V682.813ZM-54.3833 660.492C-40.414 679.617 -22.5845 688.416 -1.37726 686.643C11.3121 685.592 24.6136 680.797 38.1672 672.597C6.85298 673.824 -24.4423 669.736 -54.3903 660.507L-54.3833 660.492ZM155.048 524.606C121.852 594.119 81.518 646.001 42.6983 671.202C132.523 666.679 222.109 621.542 282.183 549.294C249.951 549.182 206.086 540.884 155.041 524.621L155.048 524.606ZM326.14 483.448C314.99 506.589 301.11 528.312 284.796 548.152C309.854 547.951 327.417 542.56 335.258 531.887C343.463 520.752 340.301 504.008 326.133 483.463L326.14 483.448Z" fill="#9A5F90"/>
<path d="M4.62349 687.053L5.00274 685.87C51.9157 700.846 86.6341 702.573 95.6315 690.341C99.7373 684.747 98.033 676.271 90.7216 665.827L91.7346 665.109C99.3934 676.008 101.072 684.998 96.6229 691.047C87.3489 703.747 52.0611 702.187 4.62349 687.053Z" fill="#9A5F90"/>
<path d="M80.2126 638.332L80.5996 637.171C161.075 662.864 220.674 665.722 236.191 644.644C243.353 634.904 240.499 620.232 227.808 602.168L228.814 601.464C241.824 620.006 244.681 635.17 237.176 645.402C221.39 666.97 161.244 664.271 80.2126 638.332Z" fill="#9A5F90"/>
<path d="M-21.961 680.28C-34.0166 674.544 -45.5183 667.71 -56.3203 659.864L-55.6069 658.858C-5.7417 694.966 53.2672 706.847 110.593 692.238C178.224 674.975 237.28 622.539 272.639 548.347L273.752 548.875C238.237 623.393 178.909 676.099 110.939 693.347C66.4833 704.802 19.4109 700.173 -21.961 680.28Z" fill="#9A5F90"/>
<path d="M-49.9028 662.998C-52.024 661.992 -54.1452 660.987 -56.2663 659.981L-55.7388 658.868C17.2902 695.476 98.8215 701.392 174 675.57C245.176 651.176 302.054 600.651 334.056 533.425L335.169 533.953C303.004 601.483 245.895 652.189 174.384 676.752C101.122 701.866 21.7272 696.962 -49.9028 662.998Z" fill="#9A5F90"/>
<path d="M326.14 483.448L325.528 482.595C277.633 414.243 122.874 321.676 -19.4548 276.23L-20.1348 276.017L-19.8324 275.379C26.2838 178.579 86.2843 115.834 136.762 111.606C158.592 109.783 177.623 119.46 191.832 139.534C257.937 160.703 308.948 205.967 335.39 267.145C349.417 299.814 355.975 335.202 354.587 370.73C353.369 408.472 343.954 446.071 326.612 482.491L326.14 483.448ZM101.468 323.064C201.622 370.553 290.97 431.905 325.943 481.029C342.986 445.085 352.147 407.947 353.36 370.711C354.718 335.377 348.178 300.185 334.219 267.698C307.88 206.841 257.122 161.77 191.233 140.722L191.04 140.63L190.919 140.464C176.848 120.328 158.596 111.002 136.816 112.794C86.9405 117.018 27.4798 179.237 -18.3581 275.297C22.5871 288.577 62.6152 304.534 101.468 323.064V323.064Z" fill="#9A5F90"/>
<path d="M352.603 340.39C311.233 281.383 177.659 201.496 54.8175 162.273L55.1967 161.09C178.275 200.389 312.126 280.498 353.616 339.671L352.603 340.39Z" fill="#9A5F90"/>
<path d="M304.249 217.639C280.128 183.217 202.175 136.534 130.417 113.684L130.789 112.516C202.726 135.487 281.006 182.325 305.256 216.935L304.249 217.639Z" fill="#9A5F90"/>
<path d="M247.423 408.604L246.31 408.076C289.169 318.108 296.815 234.391 266.754 184.143C250.737 157.343 224.657 142.379 191.38 140.755L191.442 139.513C225.189 141.142 251.553 156.35 267.82 183.504C298.087 234.122 290.443 318.294 247.423 408.604Z" fill="#9A5F90"/>
<path d="M123.545 334.476L122.432 333.949C182.84 207.313 208.018 136.779 201.727 132.688C201.109 132.268 198.876 132.226 191.903 140.494L190.954 139.699C196.709 132.889 200.364 130.352 202.403 131.646C211.783 137.728 169.555 237.899 123.545 334.476Z" fill="#9A5F90"/>
<path d="M-190.487 318.488L-191.1 317.635C-206.123 296.212 -209.464 278.657 -200.809 266.88C-192.661 255.826 -174.425 250.319 -148.396 250.178C-87.5554 176.658 3.62687 130.915 94.8441 126.979C109.197 118.013 123.378 112.782 136.755 111.62C158.644 109.789 177.719 119.524 191.918 139.775L193.014 141.294L191.277 140.743C160.231 130.942 127.7 126.693 95.1778 128.191C55.9639 152.805 15.0253 205.274 -18.7058 275.877L-18.9379 276.366L-19.4126 276.141C-71.153 259.621 -115.439 251.251 -147.705 251.25C-164.458 271.503 -178.661 293.736 -189.995 317.45L-190.487 318.488ZM-149.348 251.343C-174.392 251.552 -191.97 256.935 -199.81 267.608C-208.022 278.759 -204.86 295.502 -190.693 316.047C-179.543 292.907 -165.663 271.184 -149.348 251.343V251.343ZM92.7782 128.271C2.8897 132.891 -86.6619 177.953 -146.802 250.189C-114.511 250.328 -70.645 258.626 -19.6003 274.889C13.6025 205.362 53.9436 153.465 92.7782 128.271ZM165.353 117.749C156.455 113.568 146.595 111.862 136.809 112.809C124.113 113.875 110.818 118.655 97.2999 126.781C128.603 125.607 159.879 129.729 189.808 138.974C182.637 129.166 174.485 122.091 165.353 117.749Z" fill="#9A5F90"/>
<path d="M-93.4465 198.048C-106.456 179.506 -109.313 164.342 -101.794 154.116C-85.9566 132.554 -25.8241 135.284 55.1687 161.15L54.7895 162.332C-25.6786 136.624 -85.2996 133.774 -100.817 154.852C-107.979 164.593 -105.118 179.25 -92.4264 197.314L-93.4465 198.048Z" fill="#9A5F90"/>
<path d="M43.713 134.387C36.0542 123.487 34.376 114.497 38.8247 108.448C48.1362 95.7837 83.3943 97.3297 130.81 112.472L130.438 113.64C83.5249 98.6636 48.8143 96.9592 39.8832 109.204C35.7627 114.791 37.4599 123.282 44.7713 133.725L43.713 134.387Z" fill="#9A5F90"/>
<path d="M-137.212 251.229L-138.325 250.701C-102.818 176.162 -43.4743 123.463 24.5306 106.14C82.2208 91.4135 141.619 103.316 191.768 139.631L191.055 140.637C141.189 104.529 82.1804 92.648 24.8549 107.257C-42.8048 124.58 -101.867 177.03 -137.212 251.229Z" fill="#9A5F90"/>
<path d="M-198.723 266.234L-199.835 265.707C-167.655 198.184 -110.554 147.456 -39.0287 122.9C36.4915 96.9309 118.384 102.928 191.665 139.618L191.137 140.731C118.16 104.13 36.5917 98.2139 -38.5865 124.036C-109.828 148.491 -166.641 198.919 -198.723 266.234Z" fill="#9A5F90"/>
<path d="M33.952 476.491C-66.7811 428.728 -156.572 366.893 -191.055 317.656L-191.26 317.359L-191.126 317.077C-122.757 173.612 48.8843 93.9763 191.605 139.553L191.783 139.638L191.904 139.804C239.987 208.409 223.544 380.838 155.259 524.161L155.027 524.651L154.537 524.419C113.329 511.121 73.0454 495.11 33.952 476.491V476.491ZM-189.882 317.213C-141.8 385.435 12.4022 477.684 154.393 523.115C222.256 380.372 238.684 208.972 190.991 140.734C49.025 95.4421 -121.745 174.582 -189.882 317.213Z" fill="#9A5F90"/>
<path d="M100.94 335.096C13.9724 293.86 -63.584 240.516 -93.4114 197.974L-92.3983 197.255C-51.1242 256.272 82.5233 336.157 205.387 375.372L205.008 376.555C169.442 365.045 134.677 351.195 100.94 335.096V335.096Z" fill="#9A5F90"/>
<path d="M157.371 214.588C106.523 190.478 61.1656 159.269 43.713 134.387L44.719 133.683C68.862 168.097 146.809 214.794 218.567 237.644L218.194 238.812C197.407 232.091 177.088 223.999 157.371 214.588V214.588Z" fill="#9A5F90"/>
<path d="M-110.884 391.464L-111.996 390.936C-43.6978 247.583 92.4225 134.807 191.428 139.543L191.366 140.785C92.8225 136.032 -42.7612 248.481 -110.884 391.464Z" fill="#9A5F90"/>
<path d="M13.0084 465.561L11.8959 465.033C80.1172 321.843 160.442 175.925 190.933 139.743L191.882 140.539C161.433 176.631 81.1945 322.445 13.0084 465.561Z" fill="#9A5F90"/>
<path d="M153.851 524.257L154.153 523.619C222.276 380.636 238.761 208.772 190.898 140.508L189.801 138.989L191.553 139.547C257.82 160.72 308.803 206.043 335.303 267.212C349.33 299.882 355.888 335.27 354.5 370.797C353.301 408.385 343.914 445.925 326.68 482.233C341.517 503.512 344.796 520.966 336.17 532.683C317.839 557.587 248.218 554.447 154.444 524.501L153.851 524.257ZM192.962 141.251C239.733 210.669 223.127 381.294 155.59 523.464C248.526 552.994 317.32 556.269 335.265 531.872C343.591 520.558 340.232 503.503 325.542 482.565L325.352 482.275L325.507 481.949C342.712 445.663 352.146 408.255 353.374 370.681C354.732 335.347 348.192 300.155 334.233 267.668C308.156 207.408 257.99 162.545 192.962 141.251Z" fill="#9A5F90"/>
<path d="M205.008 376.555L205.387 375.372C285.855 401.08 345.476 403.93 360.993 382.852C368.149 373.126 365.294 358.454 352.603 340.39L353.616 339.671C366.626 358.214 369.483 373.377 361.964 383.603C346.154 405.105 286.001 402.421 205.008 376.555Z" fill="#9A5F90"/>
<path d="M218.194 238.812L218.566 237.644C265.465 252.613 300.19 254.325 309.128 242.065C313.234 236.471 311.545 228.002 304.218 217.551L305.224 216.847C312.883 227.747 314.576 236.744 310.113 242.786C300.853 255.493 265.61 253.954 218.194 238.812Z" fill="#9A5F90"/>
<path d="M273.78 548.816L272.668 548.289C340.748 405.395 304.138 222.51 191.055 140.637L191.768 139.631C305.335 221.788 342.107 405.403 273.78 548.816Z" fill="#9A5F90"/>
<path d="M335.212 533.937L334.1 533.41C402.159 390.561 338.013 214.406 191.115 140.739L191.643 139.626C339.184 213.544 403.581 390.435 335.212 533.937Z" fill="#9A5F90"/>
<path d="M-61.7408 670.377L-62.883 669.835L-66.8973 667.841L-68.707 666.983C-70.3535 666.203 -72.6112 664.987 -74.5278 663.933C-85.4373 658.055 -95.9745 651.512 -106.079 644.339C-124.522 631.237 -141.409 616.073 -156.413 599.142C-163.942 590.546 -171.026 581.572 -177.638 572.253C-183.742 563.703 -189.32 554.789 -194.343 545.563C-195.177 543.95 -196.087 542.229 -197.042 540.449C-200.252 534.385 -203.898 527.514 -206.206 521.804C-206.98 519.911 -207.831 517.836 -208.75 515.674C-210.767 510.848 -212.861 505.839 -214.367 501.582C-217.005 494.117 -220.12 484.21 -222.107 476.944C-224.921 466.671 -227.647 452.15 -230.479 432.565C-231.499 424.011 -232.091 415.41 -232.25 406.797C-232.577 398.29 -232.426 389.772 -231.798 381.283C-230.4 365.681 -228.218 350.16 -225.264 334.778C-222.568 322.156 -217.213 305.998 -212.874 293.32C-210.824 287.388 -207.544 280.203 -204.636 273.878L-203.187 270.822C-199.518 262.695 -195.326 254.814 -190.638 247.229C-189.407 245.323 -188.071 243.195 -186.678 240.985C-183.615 236.096 -180.438 231.043 -177.577 227.003C-172.912 220.421 -166.498 212.105 -161.611 206.319C-156.888 200.727 -150.506 193.742 -145.73 188.957C-141.666 184.869 -136.268 179.998 -131.51 175.712L-126.653 171.293C-119.952 165.367 -112.869 159.888 -105.45 154.891C-95.0875 147.903 -79.8344 138.801 -66.596 131.687C-58.4213 127.366 -49.9617 123.607 -41.276 120.435L-35.314 118.284C-30.5259 116.539 -25.0747 114.545 -20.6444 113.248C-12.3968 110.835 -0.752955 107.889 9.02737 105.731C16.0081 104.189 25.4171 102.891 29.1373 102.402C34.6005 101.685 41.7557 101.117 47.5459 100.592L49.2467 100.454C60.7169 99.5906 72.2332 99.5262 83.7122 100.261C93.5155 100.967 100.88 101.642 106.189 102.324C113.133 103.237 122.361 104.887 128.68 106.12C136.621 107.687 146.635 110.401 149.471 111.164C155.897 112.939 161.066 114.681 166.51 116.535C168.499 117.206 176.106 119.977 180.128 121.648C185.624 123.927 190.365 125.884 198.25 129.677C210.691 135.736 222.701 142.645 234.193 150.354C239.793 154.063 246.131 158.703 249.027 160.912C253.169 164.093 259.167 168.991 265.132 173.999C268.496 176.866 273.094 181.118 276.565 184.563C281.71 189.691 287.648 195.904 291.715 200.431C298.857 208.36 307.297 219.757 312.925 227.313C314.182 229.108 315.409 230.926 316.636 232.706C320.432 238.34 324.772 245.013 327.722 250.555C328.586 252.182 329.556 253.968 330.571 255.812C332.877 260.067 335.497 264.888 337.371 268.829C341.222 276.601 344.675 284.563 347.716 292.686C348.389 294.676 349.154 296.856 349.937 299.19C351.7 304.168 353.533 309.307 354.813 313.657C357.208 321.788 359.696 331.562 361.206 338.492C362.716 345.422 364.242 354.467 365.036 360.876C365.484 364.377 366.972 376.603 367.306 386.245C368.082 402.453 367.531 418.696 365.661 434.814C363.727 451.613 358.523 472.857 356.384 481.2C354.394 488.96 350.787 499.06 348.167 506.194C346.246 511.279 343.483 517.528 341.028 523.05C340.1 525.008 339.31 526.941 338.554 528.69C334.417 537.82 329.657 546.655 324.309 555.132C319.781 562.306 315.044 569.69 311.039 575.186C306.321 581.689 299.81 589.94 294.849 595.691C290.103 601.217 283.66 608.101 278.824 612.858C274.592 616.993 269.063 621.948 264.087 626.275L259.537 630.314C253.696 635.312 247.589 639.992 241.244 644.334C236.083 647.937 229.342 652.154 223.405 655.862L218.985 658.708C210.856 663.573 202.446 667.952 193.8 671.822C180.525 677.902 166.846 683.054 152.859 687.242C144.478 689.591 132.73 692.451 122.815 694.509C117.317 695.645 110.045 696.612 104.208 697.388L102.832 697.571C90.1021 699.057 77.2934 699.762 64.4776 699.681C60.0104 699.561 48.6577 699.211 40.0647 698.444C33.6346 697.866 24.5483 696.683 17.3259 695.439C6.70724 693.626 -3.81046 691.265 -14.1849 688.365C-21.941 686.178 -26.2086 684.717 -31.164 683.022C-34.0558 682.032 -41.0567 679.44 -44.7752 677.894C-50.0638 675.714 -53.4787 674.295 -57.0457 672.621L-61.7479 670.392L-61.7408 670.377ZM195.913 129.932C189.149 126.724 184.763 124.9 179.734 122.824C175.726 121.16 168.171 118.395 166.197 117.731C160.746 115.892 155.614 114.149 149.218 112.388C141.581 110.293 133.846 108.406 128.522 107.372C122.197 106.19 113.027 104.495 106.098 103.589C100.811 102.9 93.483 102.223 83.6945 101.525C72.2951 100.764 60.8563 100.805 49.4625 101.646L47.7617 101.785C42.0668 102.3 34.817 102.915 29.3969 103.579C25.6985 104.06 16.341 105.365 9.43217 106.831C-0.32629 108.982 -11.9334 111.927 -20.1591 114.332C-24.5457 115.613 -29.975 117.599 -34.7632 119.345L-40.7251 121.496C-49.3697 124.632 -57.7864 128.364 -65.9147 132.664C-79.1391 139.749 -94.3414 148.82 -104.682 155.8C-112.046 160.796 -119.073 166.271 -125.717 172.191C-127.223 173.566 -128.888 175.048 -130.589 176.604C-135.331 180.896 -140.722 185.753 -144.793 189.855C-149.547 194.633 -155.813 201.601 -160.603 207.143C-165.392 212.685 -171.846 221.199 -176.497 227.751C-179.343 231.762 -182.513 236.8 -185.548 241.629C-186.926 243.846 -188.263 245.975 -189.5 247.895C-194.163 255.426 -198.329 263.252 -201.972 271.326L-203.421 274.382C-206.301 280.684 -209.559 287.824 -211.588 293.712C-215.95 306.361 -221.298 322.468 -223.943 335.095C-226.894 350.433 -229.066 365.91 -230.451 381.467C-231.076 389.908 -231.228 398.377 -230.906 406.835C-230.753 415.397 -230.168 423.946 -229.152 432.449C-227.232 447.346 -224.445 462.117 -220.805 476.689C-218.796 483.947 -215.734 493.811 -213.104 501.254C-211.599 505.475 -209.527 510.455 -207.509 515.281C-206.605 517.436 -205.732 519.503 -204.959 521.397C-202.667 527.062 -199.029 533.911 -195.841 539.947C-194.871 541.733 -193.976 543.447 -193.142 545.06C-188.144 554.233 -182.596 563.095 -176.528 571.598C-169.941 580.883 -162.884 589.827 -155.386 598.393C-132.201 624.533 -104.588 646.379 -73.8144 662.926C-71.9572 663.952 -69.7003 665.131 -68.0678 665.942L-66.273 666.793L-62.2735 668.78C-61.0572 669.357 -59.5739 670.06 -58.1944 670.714L-56.4292 671.551C-52.8989 673.225 -49.477 674.629 -44.3586 676.747C-40.5588 678.313 -33.6024 680.885 -30.7106 681.874C-25.7849 683.556 -21.5173 685.016 -13.8127 687.197C-3.47877 690.095 6.99986 692.449 17.5802 694.251C24.7213 695.475 33.8225 696.665 40.2159 697.244C48.787 698.019 60.0882 698.363 64.5624 698.467C77.3067 698.546 90.0441 697.85 102.704 696.384L104.088 696.186C109.902 695.418 117.159 694.444 122.614 693.324C132.507 691.273 144.263 688.435 152.571 686.087C166.499 681.909 180.123 676.773 193.343 670.716C201.942 666.872 210.304 662.518 218.384 657.678L222.834 654.882C228.749 651.182 235.461 646.988 240.643 643.34C246.949 639.037 253.022 634.402 258.837 629.454L263.393 625.401C268.303 621.061 273.87 616.141 278.072 612.029C282.894 607.302 289.308 600.441 294.04 594.944C298.98 589.201 305.462 581.009 310.166 574.536C314.135 569.041 318.864 561.672 323.378 554.527C328.698 546.11 333.43 537.334 337.539 528.264C338.362 526.528 339.151 524.595 340.028 522.594C342.468 517.101 345.239 510.874 347.146 505.819C349.811 498.742 353.442 488.708 355.3 480.959C357.439 472.615 362.563 451.424 364.513 434.706C366.391 418.638 366.955 402.443 366.198 386.283C365.858 376.692 364.378 364.525 363.93 361.024C363.123 354.682 361.618 345.937 360.103 338.75C358.587 331.563 356.171 322.06 353.71 313.916C352.402 309.662 350.612 304.47 348.857 299.513C348.077 297.327 347.297 295.14 346.621 293.002C343.602 284.917 340.167 276.993 336.33 269.262L336.106 268.775C363.151 332.474 360.915 407.617 328.514 478.288C327.952 479.475 327.382 480.676 326.812 481.878L326.566 482.397C258.278 625.919 86.5187 705.498 -56.1425 659.949L-55.7703 658.781C86.3881 704.165 257.389 624.843 325.492 481.979L325.739 481.46C366.134 396.265 362.288 304.101 315.696 233.387L312.014 228.008C306.409 220.48 297.917 209.077 290.887 201.219C286.843 196.722 280.919 190.515 275.783 185.409C272.347 181.963 267.766 177.756 264.409 174.91C258.495 169.872 252.512 164.981 248.363 161.851C245.49 159.635 239.189 155.03 233.619 151.335C222.153 143.69 210.18 136.835 197.782 130.818L195.913 129.932Z" fill="#9A5F90"/>
</svg>
