<svg width="769" height="1041" viewBox="0 0 769 1041" fill="none" xmlns="http://www.w3.org/2000/svg">
<path d="M982.245 854.899L978.151 851.303C957.023 832.183 947.451 808.321 938.167 785.264C929.137 762.73 920.565 741.447 902.149 723.79C886.811 713.789 870.541 712.46 853.309 711.034C846.688 710.465 839.746 709.906 832.834 708.79C800.39 703.518 774.713 693.407 746.075 679.691C709.495 658.044 674.819 632.514 641.272 607.786C621.643 593.362 601.644 578.604 581.124 564.521C585.037 586.527 586.89 608.85 586.659 631.202C576.796 682.976 583.993 736.54 590.992 788.305C592.278 797.714 593.534 807.13 594.656 816.253L595.025 819.048L592.446 817.877C538.358 793.64 495.03 783.076 447.569 782.589C443.152 782.696 438.664 782.916 434.199 783.099C399.341 784.615 366.404 786.032 340.518 757.224C310.278 725.367 295.689 681.679 281.695 639.405C279.263 632.145 276.884 624.97 274.48 617.963C272.978 613.948 271.462 609.871 269.969 605.756C256.158 568.23 241.882 529.422 212.538 501.076C195.828 488.843 176.258 479.326 157.372 470.23C150.048 466.686 142.411 463.055 135.135 459.305C106.539 444.304 79.207 427.017 53.4056 407.614L46.5909 402.525L54.7887 404.826C106.529 419.42 158.754 426.745 224.053 428.611C280.583 433.298 320.434 444.652 361.541 467.753C392.024 482.554 424.891 493.586 456.661 504.23C486.503 514.262 517.389 524.597 546.511 538.167C556.747 544.421 566.826 550.971 576.781 557.681C573.344 538.226 568.935 518.775 564.629 499.624C559.468 476.724 554.157 453.051 550.641 430.248C550.45 426.7 550.295 423.304 550.094 419.855C547.795 376.982 545.186 328.419 593.068 305.884C633.411 284.518 657.04 259.531 667.461 227.246C676.032 193.034 683.2 157.828 690.155 123.773C692.248 113.435 694.364 103.102 696.503 92.7747C708.189 58.5708 720.232 23.4083 769.372 27.8367L770.235 27.9237L770.615 28.7078C774.136 35.7745 777.617 42.3973 780.977 48.9193C793.457 72.741 804.258 93.3018 808.554 120.356C811.248 143.386 825.577 170.493 838.211 194.279C842.611 202.594 846.78 210.479 850.158 217.353L911.321 347.666C923.079 372.954 934.237 398.999 945.032 424.191C953.858 444.766 963.024 466.231 972.459 487.05L973.151 488.603C999.236 545.79 1012.32 574.488 1006.16 639.017C1003.1 655.442 998.928 672.457 994.502 690.341C981.803 741.912 967.466 800.54 980.786 849.417L982.245 854.899ZM580.522 560.195C601.977 574.802 622.871 590.19 643.287 605.204C676.758 629.886 711.367 655.399 747.803 676.853C776.076 690.397 801.523 700.498 833.579 705.635C840.323 706.726 847.204 707.299 853.817 707.838C871.478 709.292 888.145 710.657 904.348 721.294C923.497 739.588 932.573 762.176 941.344 784.026C949.878 805.285 958.694 827.19 976.57 845.17C965.442 796.648 979.317 740.039 991.692 689.84C996.096 671.865 1000.28 654.88 1003.29 638.691C1009.36 575.155 996.37 546.695 970.538 490.031L969.839 488.448C960.366 467.605 951.221 446.231 942.366 425.534C931.61 400.365 920.52 374.336 908.716 349.124L847.268 218.846C844.006 211.912 839.844 204.058 835.321 195.772C822.539 171.633 808.091 144.295 805.296 120.706C801.108 94.2416 790.42 73.881 778.096 50.3133C774.847 44.1213 771.493 37.7599 768.099 30.9547C722.172 27.2228 710.614 61.0078 699.469 93.6592C697.377 103.867 695.255 114.083 693.102 124.305C686.14 158.33 678.963 193.636 670.398 228.008C659.681 261.237 635.663 286.769 594.357 308.59C548.346 330.261 550.758 375.665 553.113 419.594C553.306 423.013 553.499 426.431 553.654 429.826C557.143 452.377 562.44 475.989 567.586 498.827C572.359 519.131 576.984 539.631 580.522 560.195ZM62.1745 410.136C85.7673 427.407 110.632 442.876 136.557 456.41C143.925 460.138 151.286 463.835 158.611 467.379C177.641 476.538 197.326 485.995 214.467 498.677C244.446 527.65 258.871 566.811 272.792 604.667C274.316 608.775 275.794 612.828 277.31 616.905C279.752 623.935 282.139 631.141 284.54 638.408C298.476 680.437 312.809 723.732 342.697 755.057C367.747 782.8 399.972 781.39 434.064 779.925C438.552 779.705 443.047 779.515 447.526 779.394C494.765 779.901 537.844 790.232 591.166 813.842C590.134 805.506 588.988 797.1 587.849 788.725C580.853 736.7 573.598 682.891 583.533 630.873C583.759 607.772 581.784 584.704 577.636 561.979C566.953 554.794 556.085 547.653 545.113 540.893C516.295 527.511 485.508 517.185 455.743 507.199C423.866 496.516 390.923 485.437 360.181 470.503C319.385 447.62 279.954 436.393 223.921 431.751C161.834 430.03 111.507 423.325 62.1745 410.136Z" fill="#9A5F90"/>
<path d="M904.853 722.47L901.695 722.829C898.152 689.089 896.672 675.161 881.594 641.464C867.174 609.036 857.837 574.109 848.814 540.371C847.333 534.797 845.851 529.223 844.346 523.686C842.377 516.188 840.4 508.658 838.462 501.152C828.968 464.741 819.139 427.05 807.618 390.568C795.798 357.751 783.362 324.53 770.644 290.663L733.621 192.193C720.327 157.264 708.526 125.9 697.581 96.3723L700.565 95.2776C711.541 124.798 723.304 156.139 736.597 191.068L773.628 289.568C786.346 323.435 798.76 356.565 810.655 389.558C822.212 426.193 832.041 463.885 841.549 500.357C843.477 507.865 845.436 515.366 847.426 522.86C848.931 528.397 850.412 533.971 851.894 539.545C860.895 573.191 870.195 607.964 884.504 640.192C899.936 674.291 901.329 688.402 904.853 722.47Z" fill="#9A5F90"/>
<path d="M745.315 678.673C741.866 666.02 740.083 656.567 737.95 644.542C736.063 634.24 733.918 622.574 730.142 605.66C724.336 580.032 718.213 554.026 712.277 528.946L705.057 498.44C698.233 468.65 691.162 437.817 685.29 407.251L685.232 407.005C678.838 373.552 676.719 362.268 674.078 338.643C672.404 323.808 671.483 308.897 671.319 293.968C671.239 290.749 671.189 287.523 671.069 283.731L670.929 278.617C670.74 262.315 669.637 246.038 667.626 229.862L670.777 229.472C672.803 245.753 673.92 262.135 674.121 278.541L674.435 283.291C674.54 287.022 674.626 290.401 674.692 293.558C674.853 308.423 675.769 323.27 677.438 338.042C680.05 361.544 682.192 372.79 688.572 406.182L688.651 406.52C694.509 437.024 701.566 467.796 708.389 497.587L715.61 528.093C721.56 553.233 727.714 579.232 733.475 604.806C737.265 621.781 739.418 633.478 741.281 643.818C743.492 655.76 745.199 665.166 748.619 677.696L745.315 678.673Z" fill="#9A5F90"/>
<path d="M547.506 539.356L544.392 539.898C542.922 531.084 541.668 523.869 540.485 517.091C538.463 505.396 536.726 495.317 534.452 480.638C531.308 462.237 529.167 443.678 528.039 425.043C526.568 409.194 526.99 393.226 529.297 377.475C531.702 360.231 534.094 352.801 540.734 341.258C547.374 329.714 552.848 325.44 563.804 319.253C571.841 314.772 580.204 310.899 588.82 307.666L592.467 306.22L593.653 309.177L590.007 310.623C581.51 313.784 573.274 317.606 565.375 322.054C554.728 328.038 550.069 331.375 543.484 342.873C536.898 354.372 534.829 361.11 532.315 377.894C530.042 393.449 529.638 409.218 531.11 424.866C532.207 443.398 534.334 461.853 537.481 480.148C539.741 494.765 541.478 504.844 543.5 516.539C544.782 523.326 546.05 530.602 547.506 539.356Z" fill="#9A5F90"/>
<path d="M550.486 430.965C535.365 424.856 519.767 419.993 503.85 416.425C485.787 412.315 477.555 411.511 463.698 412.427C452.781 412.859 442.05 415.399 432.099 419.906C422.666 423.54 413.779 428.454 405.688 434.51C398.066 439.871 390.78 445.693 383.872 451.945L383.144 452.57L376.936 457.99C372.103 462.371 368.211 465.656 362.125 470.496L360.175 468.011C366.236 463.339 370.023 459.885 374.854 455.633L381.062 450.214L381.813 449.55C388.83 443.206 396.24 437.311 404 431.899C412.287 425.703 421.386 420.674 431.042 416.951C441.331 412.369 452.405 409.803 463.66 409.393C477.87 408.458 486.332 409.272 504.707 413.47C520.778 417.098 536.523 422.034 551.785 428.229L550.486 430.965Z" fill="#9A5F90"/>
<path d="M582.713 631.521C561.67 620.572 545.423 615.092 522.966 607.489L505.319 601.435L502.286 600.404C470.505 589.439 453.142 583.35 425.956 569.743C398.771 556.136 387.11 548.244 367.949 530.18C357.675 520.54 348.187 510.097 339.576 498.95C336.02 494.611 332.389 490.096 327.851 484.759C312.713 466.974 302.275 455.619 279.241 446.534C262.45 439.778 244.92 435.016 227.013 432.346L223.821 431.742L224.42 428.654L227.604 429.228C245.708 431.929 263.428 436.755 280.396 443.605C303.644 452.77 314.78 464.607 330.258 482.733C334.78 488.138 338.465 492.608 342.028 496.977C350.585 507.986 359.98 518.319 370.13 527.883C389.064 545.677 400.315 553.342 427.424 566.903C454.534 580.463 471.814 586.475 503.411 597.483L506.42 598.552C512.813 600.762 518.658 602.713 524.06 604.575C546.616 612.187 562.854 617.766 584.217 628.833L582.713 631.521Z" fill="#9A5F90"/>
<path d="M450.687 777.675L447.724 776.531C451.378 767.032 455.027 757.696 458.672 748.524C477.786 699.805 495.886 653.787 504.232 599.718C506.657 566.119 505.213 532.206 503.816 499.448C502.628 471.82 501.413 443.26 502.515 414.896C508.438 375.386 515.039 330.795 563.589 319.304L564.234 319.152C570.375 317.698 576.824 316.172 583.15 314.674C613.705 307.442 645.355 300.178 671.87 282.182C701.751 260.184 717.483 226.22 732.688 193.321L733.766 191.026C736.641 185.359 739.289 178.872 742.233 171.991C753.962 143.314 768.603 107.893 807.53 119.044L806.664 122.098C770.352 111.72 756.818 144.419 745.049 173.203C742.212 180.123 739.517 186.686 736.619 192.39L735.564 194.647C720.171 227.851 704.274 262.209 673.705 284.726C646.673 303.007 614.692 310.382 583.83 317.686C577.535 319.176 571.24 320.666 564.945 322.156L564.361 322.294C517.899 333.291 511.39 376.76 505.619 415.132C504.544 443.198 505.775 471.69 506.949 499.257C508.252 532.167 509.817 566.181 507.365 600.077C498.936 654.619 480.804 700.774 461.696 749.653C458.015 758.856 454.345 768.197 450.687 777.675Z" fill="#9A5F90"/>
<path d="M345.741 752.847L343.022 751.225C377.174 693.411 404.725 631.959 425.16 568.022C433.08 539.145 439.565 509.409 445.861 480.658C450.866 457.684 456.072 433.917 461.983 410.664C470.246 373.094 500.879 346.19 541.92 340.653C568.97 336.971 596.824 337.372 623.732 337.478C640.828 337.641 658.499 337.765 675.746 336.92C712.585 334.266 746.875 317.126 771.091 289.262L847.733 217.247L849.892 219.52L773.277 291.237C761.037 305.333 746.134 316.882 729.422 325.221C712.71 333.56 694.516 338.526 675.884 339.834C658.514 340.707 640.806 340.56 623.656 340.443C596.87 340.307 569.13 339.976 542.274 343.516C502.589 348.894 472.979 374.778 464.977 411.121C459.073 434.405 453.891 458.133 448.886 481.108C442.72 509.861 436.082 539.632 428.136 568.677C407.629 632.937 379.992 694.711 345.741 752.847Z" fill="#9A5F90"/>
<path d="M279.271 617.379L277.9 614.466C319.851 594.824 344.281 562.396 367.716 528.098C375.07 515.188 382.255 501.702 389.183 488.633C401.867 464.813 414.975 440.18 430.118 417.429C454.274 378.914 487.115 375.997 530.915 376.088C562.335 380.077 593.529 385.662 624.378 392.819C644.886 397.258 666.196 401.798 687.266 405.326C733.821 410.204 765.561 408.94 808.623 388.647C845.3 373.167 878.241 359.575 909.416 347.016L910.603 349.973C879.451 362.494 846.517 376.116 809.894 391.551C766.486 412.024 733.161 413.307 686.874 408.462C665.612 404.947 644.325 400.369 623.718 395.922C593.417 389.43 562.209 382.668 530.759 379.266C488.16 379.182 456.071 381.985 432.766 419.165C417.685 441.902 404.624 466.459 392.016 490.326C385.058 503.402 377.879 516.919 370.432 529.981C346.655 564.618 321.915 597.379 279.271 617.379Z" fill="#9A5F90"/>
<path d="M867.873 520.19C860.718 521.884 853.496 523.431 846.261 524.787C792.846 534.904 751.843 522.107 707.61 505.801C685.941 496.457 664.477 486.061 643.651 476.032C606.7 458.293 568.532 439.936 529.151 426.593C487.164 415.939 447.295 406.014 405.368 434.392C399.518 438.723 393.676 443.635 387.437 448.511C369.369 463.148 350.643 478.297 329.33 485.252L328.992 485.332C319.749 486.289 310.394 487.046 301.392 487.785C272.354 490.189 244.963 492.431 217.007 500.505L216.282 497.439C244.537 489.262 272.181 486.993 301.288 484.604C310.229 483.88 319.484 483.114 328.665 482.171C349.365 475.362 367.789 460.446 385.617 446.028C391.844 440.96 397.722 436.202 403.711 431.773C446.834 402.561 487.237 412.684 530.05 423.402C569.676 436.687 607.987 455.237 645.014 473.022C665.802 483.028 687.32 493.378 708.783 502.674C754.081 519.505 793.01 531.628 845.681 521.654C879.347 515.37 912.486 504.807 944.534 494.567C953.218 491.799 961.895 489.001 970.601 486.325L971.542 489.34C962.836 492.016 954.182 494.776 945.505 497.575C920.212 505.665 894.405 513.91 867.873 520.19Z" fill="#9A5F90"/>
<path d="M1003.97 640.442C968.809 624.124 931.74 632.056 895.875 639.735L883.519 642.336C827.154 658.072 777.266 633.359 731.025 606.649C710.243 593.242 689.536 579.332 669.49 565.881C626.491 536.979 582.059 507.089 535.333 481.757C484.852 460.292 439.323 447.141 382.039 452.832C350.96 458.536 320.16 453.361 290.199 448.441L279.431 446.651C244.318 447.094 209.158 451.174 174.925 455.197C163.282 456.561 151.57 457.908 139.767 459.147L139.441 455.987C151.212 454.755 162.917 453.377 174.568 452.044C208.77 448.028 243.999 443.964 279.534 443.389C283.407 443.994 287.019 444.596 290.601 445.205C320.202 450.114 350.82 455.203 381.376 449.622C439.443 443.811 485.36 457.096 536.488 478.829C583.473 504.294 627.974 534.2 671.018 563.156C691.033 576.614 711.709 590.532 732.531 603.832C780.011 631.252 827.259 654.68 882.635 639.146L895.175 636.501C931.531 628.706 969.252 620.652 1005.24 637.454L1003.97 640.442Z" fill="#9A5F90"/>
</svg>
