<svg width="40" height="40" viewBox="0 0 40 40" fill="none" xmlns="http://www.w3.org/2000/svg">
  <!-- Main central square outline -->
  <rect x="6" y="6" width="14" height="14" fill="none" stroke="#9AFF66" stroke-width="2"/>
  
  <!-- Top left corner bracket -->
  <path d="M2 2L2 10L4 10L4 4L10 4L10 2L2 2Z" fill="#9AFF66"/>
  
  <!-- Top right corner bracket -->
  <path d="M30 2L30 4L36 4L36 10L38 10L38 2L30 2Z" fill="#9AFF66"/>
  
  <!-- Bottom left corner bracket -->
  <path d="M2 30L2 38L10 38L10 36L4 36L4 30L2 30Z" fill="#9AFF66"/>
  
  <!-- Bottom right corner bracket -->
  <path d="M30 30L30 36L36 36L36 38L38 38L38 30L30 30Z" fill="#9AFF66"/>
  
  <!-- Inner corner brackets - top left -->
  <path d="M14 14L14 16L16 16L16 14L14 14Z" fill="#9AFF66"/>
  
  <!-- Inner corner brackets - top right -->
  <path d="M24 14L24 16L26 16L26 14L24 14Z" fill="#9AFF66"/>
  
  <!-- Inner corner brackets - bottom left -->
  <path d="M14 24L14 26L16 26L16 24L14 24Z" fill="#9AFF66"/>
  
  <!-- Inner corner brackets - bottom right -->
  <path d="M24 24L24 26L26 26L26 24L24 24Z" fill="#9AFF66"/>
</svg>
