<svg width="40" height="40" viewBox="0 0 40 40" fill="none" xmlns="http://www.w3.org/2000/svg">
  <!-- Main central square -->
  <rect x="8" y="8" width="10" height="10" fill="none" stroke="#9AFF66" stroke-width="2"/>
  
  <!-- Top left corner brackets -->
  <path d="M4 4H8V6H6V8H4V4Z" fill="#9AFF66"/>
  <path d="M12 4H16V6H14V8H12V6H14V4Z" fill="#9AFF66"/>
  
  <!-- Top right corner brackets -->
  <path d="M24 4H28V8H26V6H24V4Z" fill="#9AFF66"/>
  <path d="M32 4H36V6H34V8H32V4Z" fill="#9AFF66"/>
  
  <!-- Bottom left corner brackets -->
  <path d="M4 32H8V36H6V34H4V32Z" fill="#9AFF66"/>
  <path d="M12 32H16V34H14V36H12V32Z" fill="#9AFF66"/>
  
  <!-- Bottom right corner brackets -->
  <path d="M24 32H28V36H26V34H24V32Z" fill="#9AFF66"/>
  <path d="M32 32H36V36H34V34H32V32Z" fill="#9AFF66"/>
  
  <!-- Additional corner elements for the grid pattern -->
  <rect x="20" y="8" width="2" height="2" fill="#9AFF66"/>
  <rect x="8" y="20" width="2" height="2" fill="#9AFF66"/>
  <rect x="20" y="20" width="2" height="2" fill="#9AFF66"/>
</svg>
