<?xml version="1.0" encoding="UTF-8"?>
<svg version="1.1" xmlns="http://www.w3.org/2000/svg" width="134" height="128">
<path d="M0 0 C44.22 0 88.44 0 134 0 C134 42.24 134 84.48 134 128 C89.78 128 45.56 128 0 128 C0 85.76 0 43.52 0 0 Z " fill="#8040E6" transform="translate(0,0)"/>
<path d="M0 0 C3.63 0 7.26 0 11 0 C11 6.93 11 13.86 11 21 C14.96 21 18.92 21 23 21 C23 17.37 23 13.74 23 10 C26.63 10 30.26 10 34 10 C34 7.03 34 4.06 34 1 C37.3 1 40.6 1 44 1 C44 3.97 44 6.94 44 10 C47.63 10 51.26 10 55 10 C55 13.63 55 17.26 55 21 C58.3 21 61.6 21 65 21 C65 24.63 65 28.26 65 32 C62.03 32 59.06 32 56 32 C56 35.63 56 39.26 56 43 C52.04 43 48.08 43 44 43 C44 46.63 44 50.26 44 54 C50.93 54 57.86 54 65 54 C65 57.63 65 61.26 65 65 C58.07 65 51.14 65 44 65 C44 68.96 44 72.92 44 77 C47.63 77 51.26 77 55 77 C55 80.63 55 84.26 55 88 C58.3 88 61.6 88 65 88 C65 91.3 65 94.6 65 98 C61.7 98 58.4 98 55 98 C55 101.63 55 105.26 55 109 C51.37 109 47.74 109 44 109 C44 112.3 44 115.6 44 119 C40.7 119 37.4 119 34 119 C34 115.7 34 112.4 34 109 C30.37 109 26.74 109 23 109 C23 105.37 23 101.74 23 98 C19.04 98 15.08 98 11 98 C11 104.93 11 111.86 11 119 C7.37 119 3.74 119 0 119 C0 112.07 0 105.14 0 98 C-3.63 98 -7.26 98 -11 98 C-11 101.96 -11 105.92 -11 110 C-14.63 110 -18.26 110 -22 110 C-22 112.97 -22 115.94 -22 119 C-25.63 119 -29.26 119 -33 119 C-33 115.7 -33 112.4 -33 109 C-36.63 109 -40.26 109 -44 109 C-44 105.37 -44 101.74 -44 98 C-46.97 98 -49.94 98 -53 98 C-53 94.7 -53 91.4 -53 88 C-50.03 88 -47.06 88 -44 88 C-44 84.37 -44 80.74 -44 77 C-40.37 77 -36.74 77 -33 77 C-33 73.04 -33 69.08 -33 65 C-39.93 65 -46.86 65 -54 65 C-54 61.37 -54 57.74 -54 54 C-36.18 54 -18.36 54 0 54 C0 36.18 0 18.36 0 0 Z " fill="#020104" transform="translate(62,5)"/>
<path d="M0 0 C0 18.48 0 36.96 0 56 C-40.59 56 -81.18 56 -123 56 C-123 42.32251897 -122.97239706 28.7192137 -122.5 15.0625 C-122.45148181 13.57748506 -122.40330494 12.09245894 -122.35546875 10.60742188 C-122.24146816 7.07143818 -122.12066061 3.53578678 -122 0 C-114.74 0 -107.48 0 -100 0 C-100 3.96 -100 7.92 -100 12 C-103.63 12 -107.26 12 -111 12 C-111 15.63 -111 19.26 -111 23 C-113.97 23 -116.94 23 -120 23 C-120 26.3 -120 29.6 -120 33 C-117.03 33 -114.06 33 -111 33 C-111 36.63 -111 40.26 -111 44 C-107.37 44 -103.74 44 -100 44 C-100 47.3 -100 50.6 -100 54 C-96.37 54 -92.74 54 -89 54 C-89 51.03 -89 48.06 -89 45 C-85.37 45 -81.74 45 -78 45 C-78 41.04 -78 37.08 -78 33 C-74.37 33 -70.74 33 -67 33 C-67 39.93 -67 46.86 -67 54 C-63.37 54 -59.74 54 -56 54 C-56 47.07 -56 40.14 -56 33 C-52.04 33 -48.08 33 -44 33 C-44 36.63 -44 40.26 -44 44 C-40.37 44 -36.74 44 -33 44 C-33 47.3 -33 50.6 -33 54 C-29.7 54 -26.4 54 -23 54 C-23 50.7 -23 47.4 -23 44 C-19.37 44 -15.74 44 -12 44 C-12 40.37 -12 36.74 -12 33 C-8.7 33 -5.4 33 -2 33 C-2 29.7 -2 26.4 -2 23 C-5.3 23 -8.6 23 -12 23 C-12 19.37 -12 15.74 -12 12 C-15.63 12 -19.26 12 -23 12 C-23 8.04 -23 4.08 -23 0 C-19.5419198 -0.1941064 -16.08372393 -0.38058011 -12.625 -0.5625 C-11.64015625 -0.61857422 -10.6553125 -0.67464844 -9.640625 -0.73242188 C-8.22910156 -0.80493164 -8.22910156 -0.80493164 -6.7890625 -0.87890625 C-5.48509521 -0.94960327 -5.48509521 -0.94960327 -4.15478516 -1.02172852 C-2 -1 -2 -1 0 0 Z " fill="#7E40E0" transform="translate(129,70)"/>
<path d="M0 0 C15.84 0 31.68 0 48 0 C48 15.84 48 31.68 48 48 C32.16 48 16.32 48 0 48 C0 32.16 0 16.32 0 0 Z " fill="#D1E780" transform="translate(10,7)"/>
<path d="M0 0 C44.22 0 88.44 0 134 0 C134 42.24 134 84.48 134 128 C89.78 128 45.56 128 0 128 C0 85.76 0 43.52 0 0 Z M6 3 C6 43.59 6 84.18 6 126 C46.59 126 87.18 126 129 126 C129 85.41 129 44.82 129 3 C88.41 3 47.82 3 6 3 Z " fill="#000000" transform="translate(0,0)"/>
<path d="M0 0 C10.89 0 21.78 0 33 0 C33 10.89 33 21.78 33 33 C22.11 33 11.22 33 0 33 C0 22.11 0 11.22 0 0 Z " fill="#020105" transform="translate(18,15)"/>
<path d="M0 0 C33 0 66 0 100 0 C100 0.33 100 0.66 100 1 C85.48 1.33 70.96 1.66 56 2 C56 19.82 56 37.64 56 56 C38.18 56 20.36 56 2 56 C1.67 70.52 1.34 85.04 1 100 C0.67 100 0.34 100 0 100 C0 67 0 34 0 0 Z M4 4 C4 19.84 4 35.68 4 52 C19.84 52 35.68 52 52 52 C52 36.16 52 20.32 52 4 C36.16 4 20.32 4 4 4 Z " fill="#7F3EE6" transform="translate(6,3)"/>
<path d="M0 0 C13.53 0 27.06 0 41 0 C41 13.53 41 27.06 41 41 C27.47 41 13.94 41 0 41 C0 27.47 0 13.94 0 0 Z M4 4 C4 14.89 4 25.78 4 37 C14.89 37 25.78 37 37 37 C37 26.11 37 15.22 37 4 C26.11 4 15.22 4 4 4 Z " fill="#7E40E1" transform="translate(14,11)"/>
<path d="M0 0 C0 0.33 0 0.66 0 1 C-7.26 1 -14.52 1 -22 1 C-22 4.3 -22 7.6 -22 11 C-18.37 11 -14.74 11 -11 11 C-11 14.96 -11 18.92 -11 23 C-11.33 23 -11.66 23 -12 23 C-12 19.37 -12 15.74 -12 12 C-15.63 12 -19.26 12 -23 12 C-23 9.03 -23 6.06 -23 3 C-26.3 3 -29.6 3 -33 3 C-33 5.97 -33 8.94 -33 12 C-36.63 12 -40.26 12 -44 12 C-44 15.63 -44 19.26 -44 23 C-47.96 23 -51.92 23 -56 23 C-56 15.74 -56 8.48 -56 1 C-37.3269894 0.36277356 -18.68707448 -0.16971107 0 0 Z " fill="#7538D8" transform="translate(129,3)"/>
<path d="M0 0 C7.26 0 14.52 0 22 0 C22 3.96 22 7.92 22 12 C18.37 12 14.74 12 11 12 C11 15.63 11 19.26 11 23 C8.03 23 5.06 23 2 23 C2 26.3 2 29.6 2 33 C4.97 33 7.94 33 11 33 C11 36.63 11 40.26 11 44 C14.63 44 18.26 44 22 44 C22 44.33 22 44.66 22 45 C18.04 45 14.08 45 10 45 C10 41.37 10 37.74 10 34 C7.03 34 4.06 34 1 34 C-0.33783034 22.67622175 -0.06944117 11.38835197 0 0 Z " fill="#7437D5" transform="translate(7,70)"/>
<path d="M0 0 C7.59 0 15.18 0 23 0 C23 3.96 23 7.92 23 12 C19.37 12 15.74 12 12 12 C12 15.63 12 19.26 12 23 C8.04 23 4.08 23 0 23 C0 15.41 0 7.82 0 0 Z " fill="#7B3FD9" transform="translate(73,70)"/>
<path d="M0 0 C7.59 0 15.18 0 23 0 C23 7.59 23 15.18 23 23 C19.04 23 15.08 23 11 23 C11 19.37 11 15.74 11 12 C7.37 12 3.74 12 0 12 C0 8.04 0 4.08 0 0 Z " fill="#7A3ED8" transform="translate(39,70)"/>
<path d="M0 0 C3.63 0 7.26 0 11 0 C11 3.63 11 7.26 11 11 C14.63 11 18.26 11 22 11 C22 14.63 22 18.26 22 22 C14.74 22 7.48 22 0 22 C0 14.74 0 7.48 0 0 Z " fill="#8243E7" transform="translate(73,37)"/>
<path d="M0 0 C1.32 0 2.64 0 4 0 C4 3.63 4 7.26 4 11 C7.63 11 11.26 11 15 11 C15 12.32 15 13.64 15 15 C10.05 15 5.1 15 0 15 C0 10.05 0 5.1 0 0 Z " fill="#B6B19A" transform="translate(10,107)"/>
<path d="M0 0 C4.95 0 9.9 0 15 0 C15 1.32 15 2.64 15 4 C11.37 4 7.74 4 4 4 C4 7.63 4 11.26 4 15 C2.68 15 1.36 15 0 15 C0 10.05 0 5.1 0 0 Z " fill="#C8D589" transform="translate(10,74)"/>
<path d="M0 0 C4.95 0 9.9 0 15 0 C15 4.95 15 9.9 15 15 C13.68 15 12.36 15 11 15 C11 11.37 11 7.74 11 4 C7.37 4 3.74 4 0 4 C0 2.68 0 1.36 0 0 Z " fill="#C8D489" transform="translate(110,7)"/>
<path d="M0 0 C4.95 0 9.9 0 15 0 C15 1.32 15 2.64 15 4 C11.37 4 7.74 4 4 4 C4 7.63 4 11.26 4 15 C2.68 15 1.36 15 0 15 C0 10.05 0 5.1 0 0 Z " fill="#C9D689" transform="translate(77,7)"/>
<path d="M0 0 C0.99 0 1.98 0 3 0 C3 4.62 3 9.24 3 14 C-1.62 14 -6.24 14 -11 14 C-11 13.01 -11 12.02 -11 11 C-7.37 11 -3.74 11 0 11 C0 7.37 0 3.74 0 0 Z " fill="#D5F07A" transform="translate(122,108)"/>
<path d="M0 0 C0.99 0 1.98 0 3 0 C3 3.63 3 7.26 3 11 C6.63 11 10.26 11 14 11 C14 11.99 14 12.98 14 14 C9.38 14 4.76 14 0 14 C0 9.38 0 4.76 0 0 Z " fill="#D9F877" transform="translate(77,108)"/>
<path d="M0 0 C0.99 0 1.98 0 3 0 C3 4.62 3 9.24 3 14 C-1.62 14 -6.24 14 -11 14 C-11 13.01 -11 12.02 -11 11 C-7.37 11 -3.74 11 0 11 C0 7.37 0 3.74 0 0 Z " fill="#D9F877" transform="translate(55,108)"/>
<path d="M0 0 C4.62 0 9.24 0 14 0 C14 4.62 14 9.24 14 14 C13.01 14 12.02 14 11 14 C11 10.37 11 6.74 11 3 C7.37 3 3.74 3 0 3 C0 2.01 0 1.02 0 0 Z " fill="#D7F379" transform="translate(111,74)"/>
<path d="M0 0 C4.62 0 9.24 0 14 0 C14 0.99 14 1.98 14 3 C10.37 3 6.74 3 3 3 C3 6.63 3 10.26 3 14 C2.01 14 1.02 14 0 14 C0 9.38 0 4.76 0 0 Z " fill="#DBFB75" transform="translate(77,74)"/>
<path d="M0 0 C4.62 0 9.24 0 14 0 C14 4.62 14 9.24 14 14 C13.01 14 12.02 14 11 14 C11 10.37 11 6.74 11 3 C7.37 3 3.74 3 0 3 C0 2.01 0 1.02 0 0 Z " fill="#DBFB75" transform="translate(44,74)"/>
<path d="M0 0 C0.99 0 1.98 0 3 0 C3 4.62 3 9.24 3 14 C-1.62 14 -6.24 14 -11 14 C-11 13.01 -11 12.02 -11 11 C-7.37 11 -3.74 11 0 11 C0 7.37 0 3.74 0 0 Z " fill="#D8F578" transform="translate(122,41)"/>
<path d="M0 0 C0.99 0 1.98 0 3 0 C3 3.63 3 7.26 3 11 C6.63 11 10.26 11 14 11 C14 11.99 14 12.98 14 14 C9.38 14 4.76 14 0 14 C0 9.38 0 4.76 0 0 Z " fill="#DDFE75" transform="translate(77,41)"/>
<path d="M0 0 C0.66 0 1.32 0 2 0 C2 3.63 2 7.26 2 11 C5.63 11 9.26 11 13 11 C13 11.66 13 12.32 13 13 C8.71 13 4.42 13 0 13 C0 8.71 0 4.42 0 0 Z " fill="#DDFE75" transform="translate(11,108)"/>
</svg>
