<svg width="32" height="32" viewBox="0 0 32 32" fill="none" xmlns="http://www.w3.org/2000/svg">
<rect width="32" height="32" fill="#1B1B1B"/>
<path d="M7.99996 7.99984H8.01329M7.99996 23.9998H8.01329M5.33329 2.6665H26.6666C28.1394 2.6665 29.3333 3.86041 29.3333 5.33317V10.6665C29.3333 12.1393 28.1394 13.3332 26.6666 13.3332H5.33329C3.86053 13.3332 2.66663 12.1393 2.66663 10.6665V5.33317C2.66663 3.86041 3.86053 2.6665 5.33329 2.6665ZM5.33329 18.6665H26.6666C28.1394 18.6665 29.3333 19.8604 29.3333 21.3332V26.6665C29.3333 28.1393 28.1394 29.3332 26.6666 29.3332H5.33329C3.86053 29.3332 2.66663 28.1393 2.66663 26.6665V21.3332C2.66663 19.8604 3.86053 18.6665 5.33329 18.6665Z" stroke="#9A5F90" stroke-linecap="round" stroke-linejoin="round"/>
</svg>
