<svg width="35" height="35" viewBox="0 0 35 35" fill="none" xmlns="http://www.w3.org/2000/svg">
<g clip-path="url(#clip0_51_461)">
<path d="M17.4999 21.8752C19.9162 21.8752 21.8749 19.9164 21.8749 17.5002C21.8749 15.0839 19.9162 13.1252 17.4999 13.1252C15.0837 13.1252 13.1249 15.0839 13.1249 17.5002C13.1249 19.9164 15.0837 21.8752 17.4999 21.8752Z" stroke="#9A5F90" stroke-linecap="round" stroke-linejoin="round"/>
<path d="M28.2916 21.8752C28.0975 22.315 28.0396 22.8029 28.1253 23.276C28.2111 23.7491 28.4366 24.1856 28.7728 24.5293L28.8603 24.6168C29.1315 24.8877 29.3466 25.2094 29.4934 25.5635C29.6402 25.9175 29.7158 26.2971 29.7158 26.6804C29.7158 27.0637 29.6402 27.4432 29.4934 27.7973C29.3466 28.1514 29.1315 28.473 28.8603 28.7439C28.5895 29.0151 28.2678 29.2302 27.9137 29.377C27.5596 29.5238 27.1801 29.5993 26.7968 29.5993C26.4135 29.5993 26.034 29.5238 25.6799 29.377C25.3258 29.2302 25.0041 29.0151 24.7333 28.7439L24.6458 28.6564C24.3021 28.3202 23.8655 28.0947 23.3924 28.0089C22.9194 27.9231 22.4314 27.981 21.9916 28.1752C21.5603 28.36 21.1924 28.667 20.9333 29.0582C20.6742 29.4495 20.5351 29.908 20.5333 30.3772V30.6252C20.5333 31.3987 20.226 32.1406 19.679 32.6876C19.132 33.2345 18.3901 33.5418 17.6166 33.5418C16.843 33.5418 16.1012 33.2345 15.5542 32.6876C15.0072 32.1406 14.6999 31.3987 14.6999 30.6252V30.4939C14.6886 30.0112 14.5324 29.5431 14.2515 29.1504C13.9706 28.7576 13.5781 28.4585 13.1249 28.2918C12.6851 28.0977 12.1971 28.0398 11.7241 28.1256C11.251 28.2114 10.8145 28.4369 10.4708 28.7731L10.3833 28.8606C10.1124 29.1318 9.7907 29.3469 9.43662 29.4937C9.08254 29.6405 8.70301 29.716 8.31971 29.716C7.93642 29.716 7.55688 29.6405 7.2028 29.4937C6.84872 29.3469 6.52705 29.1318 6.25617 28.8606C5.98499 28.5897 5.76986 28.268 5.62308 27.9139C5.4763 27.5599 5.40075 27.1803 5.40075 26.797C5.40075 26.4137 5.4763 26.0342 5.62308 25.6801C5.76986 25.3261 5.98499 25.0044 6.25617 24.7335L6.34367 24.646C6.67987 24.3023 6.9054 23.8658 6.99118 23.3927C7.07695 22.9196 7.01905 22.4317 6.82492 21.9918C6.64006 21.5605 6.3331 21.1926 5.94185 20.9335C5.55059 20.6744 5.09211 20.5354 4.62284 20.5335H4.37492C3.60137 20.5335 2.85951 20.2262 2.31252 19.6792C1.76554 19.1322 1.45825 18.3904 1.45825 17.6168C1.45825 16.8433 1.76554 16.1014 2.31252 15.5544C2.85951 15.0075 3.60137 14.7002 4.37492 14.7002H4.50617C4.98887 14.6889 5.45701 14.5326 5.84973 14.2517C6.24245 13.9709 6.54159 13.5783 6.70825 13.1252C6.90238 12.6853 6.96029 12.1974 6.87451 11.7243C6.78873 11.2512 6.5632 10.8147 6.227 10.471L6.1395 10.3835C5.86832 10.1126 5.65319 9.79094 5.50641 9.43686C5.35963 9.08279 5.28408 8.70325 5.28408 8.31996C5.28408 7.93666 5.35963 7.55712 5.50641 7.20305C5.65319 6.84897 5.86832 6.52729 6.1395 6.25641C6.41038 5.98523 6.73206 5.7701 7.08614 5.62332C7.44021 5.47654 7.81975 5.40099 8.20304 5.40099C8.58634 5.40099 8.96588 5.47654 9.31995 5.62332C9.67403 5.7701 9.99571 5.98523 10.2666 6.25641L10.3541 6.34391C10.6978 6.68011 11.1343 6.90564 11.6074 6.99142C12.0805 7.0772 12.5684 7.01929 13.0083 6.82516H13.1249C13.5563 6.6403 13.9241 6.33335 14.1832 5.94209C14.4423 5.55084 14.5814 5.09235 14.5833 4.62308V4.37516C14.5833 3.60161 14.8905 2.85975 15.4375 2.31277C15.9845 1.76579 16.7264 1.4585 17.4999 1.4585C18.2735 1.4585 19.0153 1.76579 19.5623 2.31277C20.1093 2.85975 20.4166 3.60161 20.4166 4.37516V4.50641C20.4185 4.97569 20.5575 5.43417 20.8166 5.82543C21.0757 6.21668 21.4436 6.52363 21.8749 6.7085C22.3148 6.90262 22.8027 6.96053 23.2758 6.87475C23.7489 6.78898 24.1854 6.56345 24.5291 6.22725L24.6166 6.13975C24.8875 5.86857 25.2091 5.65343 25.5632 5.50666C25.9173 5.35988 26.2968 5.28433 26.6801 5.28433C27.0634 5.28433 27.443 5.35988 27.797 5.50666C28.1511 5.65343 28.4728 5.86857 28.7437 6.13975C29.0149 6.41063 29.23 6.7323 29.3768 7.08638C29.5235 7.44046 29.5991 7.81999 29.5991 8.20329C29.5991 8.58658 29.5235 8.96612 29.3768 9.3202C29.23 9.67428 29.0149 9.99595 28.7437 10.2668L28.6562 10.3543C28.32 10.698 28.0944 11.1346 28.0087 11.6076C27.9229 12.0807 27.9808 12.5686 28.1749 13.0085V13.1252C28.3598 13.5565 28.6667 13.9244 29.058 14.1835C29.4493 14.4426 29.9077 14.5816 30.377 14.5835H30.6249C31.3985 14.5835 32.1403 14.8908 32.6873 15.4378C33.2343 15.9848 33.5416 16.7266 33.5416 17.5002C33.5416 18.2737 33.2343 19.0156 32.6873 19.5626C32.1403 20.1095 31.3985 20.4168 30.6249 20.4168H30.4937C30.0244 20.4187 29.5659 20.5578 29.1747 20.8169C28.7834 21.076 28.4765 21.4438 28.2916 21.8752Z" stroke="#9A5F90" stroke-linecap="round" stroke-linejoin="round"/>
</g>
<defs>
<clipPath id="clip0_51_461">
<rect width="35" height="35" fill="white"/>
</clipPath>
</defs>
</svg>
